<mxfile host="app.diagrams.net" modified="2023-01-13T21:55:02.774Z" agent="5.0 (Windows NT 10.0; Win64; x64) AppleWebKit/537.36 (KHTML, like Gecko) Chrome/107.0.0.0 Safari/537.36 OPR/93.0.0.0 (Edition std-1)" etag="0pIcqG_F7LKYEcRI4XdL" version="20.8.3" type="github" pages="4">
  <diagram id="IwssSK_p9D22S77ubPVE" name="Knowledge Map">
    <mxGraphModel dx="2220" dy="797" grid="1" gridSize="10" guides="1" tooltips="1" connect="1" arrows="1" fold="1" page="1" pageScale="1" pageWidth="827" pageHeight="1169" math="0" shadow="0">
      <root>
        <mxCell id="0" />
        <mxCell id="1" parent="0" />
        <mxCell id="idJWofyPqD76pYIMuWjh-70" style="edgeStyle=orthogonalEdgeStyle;rounded=0;orthogonalLoop=1;jettySize=auto;html=1;entryX=0.5;entryY=0;entryDx=0;entryDy=0;fontSize=12;" parent="1" source="T8rQtC1NhWbE-KgKJLJK-5" target="T8rQtC1NhWbE-KgKJLJK-6" edge="1">
          <mxGeometry relative="1" as="geometry" />
        </mxCell>
        <mxCell id="noL6Zwn1p8a0QqXjqLaH-19" style="edgeStyle=orthogonalEdgeStyle;rounded=0;orthogonalLoop=1;jettySize=auto;html=1;exitX=0;exitY=0.5;exitDx=0;exitDy=0;entryX=1;entryY=0.5;entryDx=0;entryDy=0;" parent="1" source="T8rQtC1NhWbE-KgKJLJK-5" target="noL6Zwn1p8a0QqXjqLaH-17" edge="1">
          <mxGeometry relative="1" as="geometry" />
        </mxCell>
        <mxCell id="T8rQtC1NhWbE-KgKJLJK-5" value="Binary" style="rounded=0;whiteSpace=wrap;html=1;fillColor=#d5e8d4;strokeColor=#82b366;" parent="1" vertex="1">
          <mxGeometry x="170" y="180" width="100" height="40" as="geometry" />
        </mxCell>
        <mxCell id="T8rQtC1NhWbE-KgKJLJK-123" style="edgeStyle=orthogonalEdgeStyle;rounded=0;orthogonalLoop=1;jettySize=auto;html=1;exitX=1;exitY=0.5;exitDx=0;exitDy=0;entryX=0;entryY=0.5;entryDx=0;entryDy=0;fontSize=12;" parent="1" source="T8rQtC1NhWbE-KgKJLJK-6" target="T8rQtC1NhWbE-KgKJLJK-120" edge="1">
          <mxGeometry relative="1" as="geometry" />
        </mxCell>
        <mxCell id="idJWofyPqD76pYIMuWjh-68" style="edgeStyle=orthogonalEdgeStyle;rounded=0;orthogonalLoop=1;jettySize=auto;html=1;entryX=0.5;entryY=0;entryDx=0;entryDy=0;fontSize=12;" parent="1" source="T8rQtC1NhWbE-KgKJLJK-6" target="T8rQtC1NhWbE-KgKJLJK-7" edge="1">
          <mxGeometry relative="1" as="geometry" />
        </mxCell>
        <mxCell id="JxPK-o-dlAkDuVR7hz93-11" style="edgeStyle=orthogonalEdgeStyle;rounded=0;orthogonalLoop=1;jettySize=auto;html=1;exitX=0;exitY=0.5;exitDx=0;exitDy=0;" parent="1" source="T8rQtC1NhWbE-KgKJLJK-6" target="JxPK-o-dlAkDuVR7hz93-9" edge="1">
          <mxGeometry relative="1" as="geometry" />
        </mxCell>
        <mxCell id="T8rQtC1NhWbE-KgKJLJK-6" value="Binary addition" style="rounded=0;whiteSpace=wrap;html=1;fillColor=#d5e8d4;strokeColor=#82b366;" parent="1" vertex="1">
          <mxGeometry x="170" y="240" width="100" height="40" as="geometry" />
        </mxCell>
        <mxCell id="idJWofyPqD76pYIMuWjh-69" style="edgeStyle=orthogonalEdgeStyle;rounded=0;orthogonalLoop=1;jettySize=auto;html=1;entryX=0.5;entryY=0;entryDx=0;entryDy=0;fontSize=12;" parent="1" source="T8rQtC1NhWbE-KgKJLJK-7" target="T8rQtC1NhWbE-KgKJLJK-17" edge="1">
          <mxGeometry relative="1" as="geometry" />
        </mxCell>
        <mxCell id="T8rQtC1NhWbE-KgKJLJK-7" value="Binary negation" style="rounded=0;whiteSpace=wrap;html=1;fillColor=#d5e8d4;strokeColor=#82b366;" parent="1" vertex="1">
          <mxGeometry x="170" y="300" width="100" height="40" as="geometry" />
        </mxCell>
        <mxCell id="T8rQtC1NhWbE-KgKJLJK-11" value="" style="triangle;whiteSpace=wrap;html=1;rotation=90;fillColor=#00A300;strokeColor=#005700;fontColor=#ffffff;" parent="1" vertex="1">
          <mxGeometry x="580" y="40" width="60" height="80" as="geometry" />
        </mxCell>
        <mxCell id="T8rQtC1NhWbE-KgKJLJK-12" value="Start" style="text;html=1;strokeColor=none;fillColor=none;align=center;verticalAlign=middle;whiteSpace=wrap;rounded=0;" parent="1" vertex="1">
          <mxGeometry x="580" y="50" width="60" height="30" as="geometry" />
        </mxCell>
        <mxCell id="T8rQtC1NhWbE-KgKJLJK-90" style="edgeStyle=orthogonalEdgeStyle;rounded=0;orthogonalLoop=1;jettySize=auto;html=1;fontSize=14;startArrow=none;" parent="1" target="T8rQtC1NhWbE-KgKJLJK-37" edge="1">
          <mxGeometry relative="1" as="geometry">
            <mxPoint x="610" y="190" as="sourcePoint" />
          </mxGeometry>
        </mxCell>
        <mxCell id="T8rQtC1NhWbE-KgKJLJK-117" style="edgeStyle=orthogonalEdgeStyle;rounded=0;orthogonalLoop=1;jettySize=auto;html=1;exitX=0;exitY=0.5;exitDx=0;exitDy=0;fontSize=14;entryX=0.5;entryY=0;entryDx=0;entryDy=0;" parent="1" source="T8rQtC1NhWbE-KgKJLJK-13" target="T8rQtC1NhWbE-KgKJLJK-120" edge="1">
          <mxGeometry relative="1" as="geometry">
            <mxPoint x="365" y="200" as="targetPoint" />
          </mxGeometry>
        </mxCell>
        <mxCell id="T8rQtC1NhWbE-KgKJLJK-129" style="edgeStyle=orthogonalEdgeStyle;rounded=0;orthogonalLoop=1;jettySize=auto;html=1;exitX=1;exitY=0.5;exitDx=0;exitDy=0;entryX=0.5;entryY=0;entryDx=0;entryDy=0;fontSize=12;" parent="1" source="T8rQtC1NhWbE-KgKJLJK-13" target="T8rQtC1NhWbE-KgKJLJK-34" edge="1">
          <mxGeometry relative="1" as="geometry" />
        </mxCell>
        <mxCell id="l5fFcWF6RfPe-wyN7eGA-2" style="edgeStyle=orthogonalEdgeStyle;rounded=0;orthogonalLoop=1;jettySize=auto;html=1;entryX=0.5;entryY=0;entryDx=0;entryDy=0;" parent="1" source="T8rQtC1NhWbE-KgKJLJK-13" target="T8rQtC1NhWbE-KgKJLJK-105" edge="1">
          <mxGeometry relative="1" as="geometry" />
        </mxCell>
        <UserObject label="Logic Gates" link="data:page/id,x8H9e7qvpK3gjb9wUWKh" id="T8rQtC1NhWbE-KgKJLJK-13">
          <mxCell style="rounded=1;whiteSpace=wrap;html=1;fillColor=#d5e8d4;strokeColor=#82b366;" parent="1" vertex="1">
            <mxGeometry x="560" y="110" width="100" height="30" as="geometry" />
          </mxCell>
        </UserObject>
        <mxCell id="idJWofyPqD76pYIMuWjh-74" style="edgeStyle=orthogonalEdgeStyle;rounded=0;orthogonalLoop=1;jettySize=auto;html=1;entryX=0.5;entryY=0;entryDx=0;entryDy=0;fontSize=12;" parent="1" source="T8rQtC1NhWbE-KgKJLJK-17" target="idJWofyPqD76pYIMuWjh-73" edge="1">
          <mxGeometry relative="1" as="geometry" />
        </mxCell>
        <mxCell id="JxPK-o-dlAkDuVR7hz93-6" style="edgeStyle=orthogonalEdgeStyle;rounded=0;orthogonalLoop=1;jettySize=auto;html=1;entryX=1;entryY=0.5;entryDx=0;entryDy=0;" parent="1" source="T8rQtC1NhWbE-KgKJLJK-17" target="JxPK-o-dlAkDuVR7hz93-2" edge="1">
          <mxGeometry relative="1" as="geometry" />
        </mxCell>
        <mxCell id="T8rQtC1NhWbE-KgKJLJK-17" value="Binary subtraction" style="rounded=0;whiteSpace=wrap;html=1;fillColor=#d5e8d4;strokeColor=#82b366;" parent="1" vertex="1">
          <mxGeometry x="170" y="360" width="100" height="40" as="geometry" />
        </mxCell>
        <mxCell id="T8rQtC1NhWbE-KgKJLJK-28" value="" style="endArrow=classic;html=1;rounded=0;fontSize=10;" parent="1" source="T8rQtC1NhWbE-KgKJLJK-6" edge="1">
          <mxGeometry x="-1" y="-100" width="50" height="50" relative="1" as="geometry">
            <mxPoint x="262.8299999999999" y="260.00000000000006" as="sourcePoint" />
            <mxPoint x="262.8299999999999" y="279.99999999999994" as="targetPoint" />
            <mxPoint y="-10" as="offset" />
            <Array as="points">
              <mxPoint x="263" y="280" />
            </Array>
          </mxGeometry>
        </mxCell>
        <mxCell id="T8rQtC1NhWbE-KgKJLJK-131" style="edgeStyle=orthogonalEdgeStyle;rounded=0;orthogonalLoop=1;jettySize=auto;html=1;exitX=0;exitY=0.5;exitDx=0;exitDy=0;entryX=0.5;entryY=0;entryDx=0;entryDy=0;fontSize=12;" parent="1" source="T8rQtC1NhWbE-KgKJLJK-34" target="T8rQtC1NhWbE-KgKJLJK-100" edge="1">
          <mxGeometry relative="1" as="geometry" />
        </mxCell>
        <UserObject label="latches" link="data:page/id,xXaT7YOIKjK9uHqn3oWq" id="T8rQtC1NhWbE-KgKJLJK-34">
          <mxCell style="rounded=1;whiteSpace=wrap;html=1;fillColor=#d5e8d4;strokeColor=#82b366;" parent="1" vertex="1">
            <mxGeometry x="820" y="240" width="100" height="40" as="geometry" />
          </mxCell>
        </UserObject>
        <mxCell id="T8rQtC1NhWbE-KgKJLJK-35" value="" style="endArrow=classic;html=1;rounded=0;fontSize=10;entryX=0.5;entryY=0;entryDx=0;entryDy=0;" parent="1" source="T8rQtC1NhWbE-KgKJLJK-34" target="T8rQtC1NhWbE-KgKJLJK-47" edge="1">
          <mxGeometry x="-1" y="-100" width="50" height="50" relative="1" as="geometry">
            <mxPoint x="869.9200000000001" y="280.00000000000006" as="sourcePoint" />
            <mxPoint x="869.9200000000001" y="299.99999999999994" as="targetPoint" />
            <mxPoint y="-10" as="offset" />
          </mxGeometry>
        </mxCell>
        <mxCell id="T8rQtC1NhWbE-KgKJLJK-104" style="edgeStyle=orthogonalEdgeStyle;rounded=0;orthogonalLoop=1;jettySize=auto;html=1;fontSize=14;" parent="1" source="T8rQtC1NhWbE-KgKJLJK-37" target="T8rQtC1NhWbE-KgKJLJK-100" edge="1">
          <mxGeometry relative="1" as="geometry" />
        </mxCell>
        <mxCell id="T8rQtC1NhWbE-KgKJLJK-37" value="Decoders" style="rounded=0;whiteSpace=wrap;html=1;fillColor=#d5e8d4;strokeColor=#82b366;" parent="1" vertex="1">
          <mxGeometry x="560" y="240" width="100" height="40" as="geometry" />
        </mxCell>
        <mxCell id="T8rQtC1NhWbE-KgKJLJK-38" value="" style="endArrow=classic;html=1;rounded=0;fontSize=10;" parent="1" source="T8rQtC1NhWbE-KgKJLJK-37" target="T8rQtC1NhWbE-KgKJLJK-57" edge="1">
          <mxGeometry x="-1" y="-100" width="50" height="50" relative="1" as="geometry">
            <mxPoint x="610" y="280.00000000000006" as="sourcePoint" />
            <mxPoint x="610" y="299.99999999999994" as="targetPoint" />
            <mxPoint y="-10" as="offset" />
          </mxGeometry>
        </mxCell>
        <mxCell id="T8rQtC1NhWbE-KgKJLJK-47" value="Clocks" style="rounded=0;whiteSpace=wrap;html=1;fillColor=#ffe6cc;strokeColor=#d79b00;" parent="1" vertex="1">
          <mxGeometry x="820" y="300" width="100" height="40" as="geometry" />
        </mxCell>
        <mxCell id="T8rQtC1NhWbE-KgKJLJK-48" value="" style="endArrow=classic;html=1;rounded=0;fontSize=10;" parent="1" source="T8rQtC1NhWbE-KgKJLJK-47" target="T8rQtC1NhWbE-KgKJLJK-49" edge="1">
          <mxGeometry x="-1" y="-100" width="50" height="50" relative="1" as="geometry">
            <mxPoint x="870" y="340" as="sourcePoint" />
            <mxPoint x="870" y="360" as="targetPoint" />
            <mxPoint y="-10" as="offset" />
          </mxGeometry>
        </mxCell>
        <mxCell id="T8rQtC1NhWbE-KgKJLJK-49" value="Counters" style="rounded=0;whiteSpace=wrap;html=1;fillColor=#ffe6cc;strokeColor=#d79b00;" parent="1" vertex="1">
          <mxGeometry x="820" y="360" width="100" height="40" as="geometry" />
        </mxCell>
        <mxCell id="T8rQtC1NhWbE-KgKJLJK-50" value="" style="endArrow=classic;html=1;rounded=0;fontSize=10;" parent="1" edge="1">
          <mxGeometry x="-1" y="-100" width="50" height="50" relative="1" as="geometry">
            <mxPoint x="870" y="400" as="sourcePoint" />
            <mxPoint x="870" y="420" as="targetPoint" />
            <mxPoint y="-10" as="offset" />
          </mxGeometry>
        </mxCell>
        <mxCell id="idJWofyPqD76pYIMuWjh-1" style="edgeStyle=orthogonalEdgeStyle;rounded=0;orthogonalLoop=1;jettySize=auto;html=1;entryX=1;entryY=0.5;entryDx=0;entryDy=0;fontSize=12;exitX=0.5;exitY=1;exitDx=0;exitDy=0;" parent="1" source="T8rQtC1NhWbE-KgKJLJK-51" target="T8rQtC1NhWbE-KgKJLJK-118" edge="1">
          <mxGeometry relative="1" as="geometry" />
        </mxCell>
        <mxCell id="idJWofyPqD76pYIMuWjh-42" style="edgeStyle=orthogonalEdgeStyle;rounded=0;orthogonalLoop=1;jettySize=auto;html=1;exitX=0.5;exitY=1;exitDx=0;exitDy=0;fontSize=12;" parent="1" source="T8rQtC1NhWbE-KgKJLJK-51" edge="1">
          <mxGeometry relative="1" as="geometry">
            <mxPoint x="800" y="500" as="targetPoint" />
          </mxGeometry>
        </mxCell>
        <mxCell id="noL6Zwn1p8a0QqXjqLaH-12" style="edgeStyle=orthogonalEdgeStyle;rounded=0;orthogonalLoop=1;jettySize=auto;html=1;entryX=0.5;entryY=0;entryDx=0;entryDy=0;" parent="1" source="T8rQtC1NhWbE-KgKJLJK-51" target="noL6Zwn1p8a0QqXjqLaH-11" edge="1">
          <mxGeometry relative="1" as="geometry" />
        </mxCell>
        <mxCell id="9Yh9oi0NJUhHSXKj6lHp-3" style="edgeStyle=orthogonalEdgeStyle;rounded=0;orthogonalLoop=1;jettySize=auto;html=1;exitX=0.5;exitY=1;exitDx=0;exitDy=0;entryX=0;entryY=0.5;entryDx=0;entryDy=0;" parent="1" source="T8rQtC1NhWbE-KgKJLJK-51" target="9Yh9oi0NJUhHSXKj6lHp-2" edge="1">
          <mxGeometry relative="1" as="geometry" />
        </mxCell>
        <mxCell id="T8rQtC1NhWbE-KgKJLJK-51" value="Program Counter" style="rounded=0;whiteSpace=wrap;html=1;fillColor=#ffe6cc;strokeColor=#d79b00;" parent="1" vertex="1">
          <mxGeometry x="820" y="420" width="100" height="40" as="geometry" />
        </mxCell>
        <mxCell id="idJWofyPqD76pYIMuWjh-16" style="edgeStyle=orthogonalEdgeStyle;rounded=0;orthogonalLoop=1;jettySize=auto;html=1;entryX=0.5;entryY=0;entryDx=0;entryDy=0;fontSize=12;" parent="1" source="T8rQtC1NhWbE-KgKJLJK-57" target="idJWofyPqD76pYIMuWjh-15" edge="1">
          <mxGeometry relative="1" as="geometry" />
        </mxCell>
        <mxCell id="T8rQtC1NhWbE-KgKJLJK-57" value="ROM" style="rounded=0;whiteSpace=wrap;html=1;fillColor=#ffe6cc;strokeColor=#d79b00;" parent="1" vertex="1">
          <mxGeometry x="560" y="300" width="100" height="40" as="geometry" />
        </mxCell>
        <mxCell id="T8rQtC1NhWbE-KgKJLJK-82" value="RAM" style="rounded=0;whiteSpace=wrap;html=1;fillColor=#ffe6cc;strokeColor=#d79b00;" parent="1" vertex="1">
          <mxGeometry x="690" y="420" width="100" height="40" as="geometry" />
        </mxCell>
        <mxCell id="T8rQtC1NhWbE-KgKJLJK-83" value="" style="endArrow=classic;html=1;rounded=0;fontSize=10;" parent="1" source="T8rQtC1NhWbE-KgKJLJK-82" target="T8rQtC1NhWbE-KgKJLJK-118" edge="1">
          <mxGeometry x="-1" y="-100" width="50" height="50" relative="1" as="geometry">
            <mxPoint x="740" y="400.00000000000006" as="sourcePoint" />
            <mxPoint x="740" y="480" as="targetPoint" />
            <mxPoint y="-10" as="offset" />
          </mxGeometry>
        </mxCell>
        <mxCell id="T8rQtC1NhWbE-KgKJLJK-102" style="edgeStyle=orthogonalEdgeStyle;rounded=0;orthogonalLoop=1;jettySize=auto;html=1;entryX=0.5;entryY=0;entryDx=0;entryDy=0;fontSize=14;" parent="1" source="T8rQtC1NhWbE-KgKJLJK-100" target="T8rQtC1NhWbE-KgKJLJK-82" edge="1">
          <mxGeometry relative="1" as="geometry" />
        </mxCell>
        <mxCell id="T8rQtC1NhWbE-KgKJLJK-133" style="edgeStyle=orthogonalEdgeStyle;rounded=0;orthogonalLoop=1;jettySize=auto;html=1;exitX=0.5;exitY=1;exitDx=0;exitDy=0;fontSize=12;entryX=1;entryY=0.5;entryDx=0;entryDy=0;" parent="1" source="T8rQtC1NhWbE-KgKJLJK-100" target="T8rQtC1NhWbE-KgKJLJK-135" edge="1">
          <mxGeometry relative="1" as="geometry">
            <mxPoint x="610" y="400" as="targetPoint" />
            <Array as="points">
              <mxPoint x="740" y="380" />
            </Array>
          </mxGeometry>
        </mxCell>
        <mxCell id="T8rQtC1NhWbE-KgKJLJK-100" value="Registers" style="rounded=0;whiteSpace=wrap;html=1;fillColor=#ffe6cc;strokeColor=#d79b00;" parent="1" vertex="1">
          <mxGeometry x="690" y="300" width="100" height="40" as="geometry" />
        </mxCell>
        <mxCell id="l5fFcWF6RfPe-wyN7eGA-5" style="edgeStyle=orthogonalEdgeStyle;rounded=0;orthogonalLoop=1;jettySize=auto;html=1;exitX=0.5;exitY=1;exitDx=0;exitDy=0;entryX=0.5;entryY=0;entryDx=0;entryDy=0;" parent="1" source="T8rQtC1NhWbE-KgKJLJK-105" target="T8rQtC1NhWbE-KgKJLJK-128" edge="1">
          <mxGeometry relative="1" as="geometry" />
        </mxCell>
        <mxCell id="T8rQtC1NhWbE-KgKJLJK-105" value="Bitwise Logic" style="rounded=0;whiteSpace=wrap;html=1;fillColor=#d5e8d4;strokeColor=#82b366;" parent="1" vertex="1">
          <mxGeometry x="430" y="240" width="100" height="40" as="geometry" />
        </mxCell>
        <mxCell id="idJWofyPqD76pYIMuWjh-3" style="edgeStyle=orthogonalEdgeStyle;rounded=0;orthogonalLoop=1;jettySize=auto;html=1;fontSize=12;" parent="1" source="T8rQtC1NhWbE-KgKJLJK-118" target="T8rQtC1NhWbE-KgKJLJK-138" edge="1">
          <mxGeometry relative="1" as="geometry" />
        </mxCell>
        <mxCell id="T8rQtC1NhWbE-KgKJLJK-118" value="&lt;font style=&quot;font-size: 12px;&quot;&gt;Cache&lt;/font&gt;" style="rounded=1;whiteSpace=wrap;html=1;fontSize=14;" parent="1" vertex="1">
          <mxGeometry x="690" y="540" width="100" height="40" as="geometry" />
        </mxCell>
        <mxCell id="T8rQtC1NhWbE-KgKJLJK-122" style="edgeStyle=orthogonalEdgeStyle;rounded=0;orthogonalLoop=1;jettySize=auto;html=1;fontSize=14;entryX=0.5;entryY=0;entryDx=0;entryDy=0;" parent="1" source="T8rQtC1NhWbE-KgKJLJK-120" target="T8rQtC1NhWbE-KgKJLJK-124" edge="1">
          <mxGeometry relative="1" as="geometry">
            <mxPoint x="350" y="300" as="targetPoint" />
          </mxGeometry>
        </mxCell>
        <UserObject label="&lt;span style=&quot;font-size: 12px;&quot;&gt;Adders&lt;/span&gt;" link="data:page/id,Djy4OmKW3Ihp5cy1kzOE" id="T8rQtC1NhWbE-KgKJLJK-120">
          <mxCell style="rounded=1;whiteSpace=wrap;html=1;fontSize=14;fillColor=#d5e8d4;strokeColor=#82b366;" parent="1" vertex="1">
            <mxGeometry x="300" y="240" width="100" height="40" as="geometry" />
          </mxCell>
        </UserObject>
        <mxCell id="idJWofyPqD76pYIMuWjh-84" style="edgeStyle=orthogonalEdgeStyle;rounded=0;orthogonalLoop=1;jettySize=auto;html=1;exitX=0.5;exitY=1;exitDx=0;exitDy=0;entryX=0.5;entryY=0;entryDx=0;entryDy=0;fontSize=12;" parent="1" source="T8rQtC1NhWbE-KgKJLJK-124" target="idJWofyPqD76pYIMuWjh-78" edge="1">
          <mxGeometry relative="1" as="geometry" />
        </mxCell>
        <mxCell id="l5fFcWF6RfPe-wyN7eGA-3" style="edgeStyle=orthogonalEdgeStyle;rounded=0;orthogonalLoop=1;jettySize=auto;html=1;entryX=0;entryY=0.5;entryDx=0;entryDy=0;" parent="1" source="T8rQtC1NhWbE-KgKJLJK-124" target="T8rQtC1NhWbE-KgKJLJK-128" edge="1">
          <mxGeometry relative="1" as="geometry" />
        </mxCell>
        <mxCell id="T8rQtC1NhWbE-KgKJLJK-124" value="Subtractor" style="rounded=0;whiteSpace=wrap;html=1;fillColor=#d5e8d4;strokeColor=#82b366;" parent="1" vertex="1">
          <mxGeometry x="300" y="300" width="100" height="40" as="geometry" />
        </mxCell>
        <mxCell id="l5fFcWF6RfPe-wyN7eGA-4" style="edgeStyle=orthogonalEdgeStyle;rounded=0;orthogonalLoop=1;jettySize=auto;html=1;entryX=0.5;entryY=0;entryDx=0;entryDy=0;" parent="1" source="T8rQtC1NhWbE-KgKJLJK-128" target="T8rQtC1NhWbE-KgKJLJK-135" edge="1">
          <mxGeometry relative="1" as="geometry" />
        </mxCell>
        <mxCell id="T8rQtC1NhWbE-KgKJLJK-128" value="ALU" style="rounded=0;whiteSpace=wrap;html=1;fillColor=#d5e8d4;strokeColor=#82b366;" parent="1" vertex="1">
          <mxGeometry x="430" y="300" width="100" height="40" as="geometry" />
        </mxCell>
        <mxCell id="idJWofyPqD76pYIMuWjh-10" style="edgeStyle=orthogonalEdgeStyle;rounded=0;orthogonalLoop=1;jettySize=auto;html=1;exitX=0.5;exitY=1;exitDx=0;exitDy=0;entryX=0;entryY=0.5;entryDx=0;entryDy=0;fontSize=12;" parent="1" source="T8rQtC1NhWbE-KgKJLJK-135" target="idJWofyPqD76pYIMuWjh-6" edge="1">
          <mxGeometry relative="1" as="geometry" />
        </mxCell>
        <mxCell id="T8rQtC1NhWbE-KgKJLJK-135" value="Dataloop" style="rounded=0;whiteSpace=wrap;html=1;fillColor=#ffe6cc;strokeColor=#d79b00;" parent="1" vertex="1">
          <mxGeometry x="430" y="360" width="100" height="40" as="geometry" />
        </mxCell>
        <mxCell id="noL6Zwn1p8a0QqXjqLaH-2" style="edgeStyle=orthogonalEdgeStyle;rounded=0;orthogonalLoop=1;jettySize=auto;html=1;" parent="1" source="T8rQtC1NhWbE-KgKJLJK-138" target="noL6Zwn1p8a0QqXjqLaH-1" edge="1">
          <mxGeometry relative="1" as="geometry" />
        </mxCell>
        <mxCell id="T8rQtC1NhWbE-KgKJLJK-138" value="MMU" style="rounded=0;whiteSpace=wrap;html=1;" parent="1" vertex="1">
          <mxGeometry x="690" y="600" width="100" height="40" as="geometry" />
        </mxCell>
        <mxCell id="noL6Zwn1p8a0QqXjqLaH-14" style="edgeStyle=orthogonalEdgeStyle;rounded=0;orthogonalLoop=1;jettySize=auto;html=1;entryX=0.5;entryY=0;entryDx=0;entryDy=0;" parent="1" source="idJWofyPqD76pYIMuWjh-6" target="noL6Zwn1p8a0QqXjqLaH-13" edge="1">
          <mxGeometry relative="1" as="geometry" />
        </mxCell>
        <mxCell id="idJWofyPqD76pYIMuWjh-6" value="CPU" style="rounded=0;whiteSpace=wrap;html=1;fillColor=#ffe6cc;strokeColor=#d79b00;" parent="1" vertex="1">
          <mxGeometry x="560" y="540" width="100" height="40" as="geometry" />
        </mxCell>
        <mxCell id="idJWofyPqD76pYIMuWjh-20" style="edgeStyle=orthogonalEdgeStyle;rounded=0;orthogonalLoop=1;jettySize=auto;html=1;entryX=0.5;entryY=0;entryDx=0;entryDy=0;fontSize=12;" parent="1" source="idJWofyPqD76pYIMuWjh-15" target="idJWofyPqD76pYIMuWjh-6" edge="1">
          <mxGeometry relative="1" as="geometry" />
        </mxCell>
        <mxCell id="idJWofyPqD76pYIMuWjh-15" value="PMEM" style="rounded=0;whiteSpace=wrap;html=1;fillColor=#ffe6cc;strokeColor=#d79b00;" parent="1" vertex="1">
          <mxGeometry x="560" y="480" width="100" height="40" as="geometry" />
        </mxCell>
        <mxCell id="idJWofyPqD76pYIMuWjh-32" style="edgeStyle=orthogonalEdgeStyle;rounded=0;orthogonalLoop=1;jettySize=auto;html=1;entryX=0.5;entryY=0;entryDx=0;entryDy=0;fontSize=12;" parent="1" source="idJWofyPqD76pYIMuWjh-25" target="idJWofyPqD76pYIMuWjh-30" edge="1">
          <mxGeometry relative="1" as="geometry" />
        </mxCell>
        <mxCell id="idJWofyPqD76pYIMuWjh-33" style="edgeStyle=orthogonalEdgeStyle;rounded=0;orthogonalLoop=1;jettySize=auto;html=1;exitX=1;exitY=0.5;exitDx=0;exitDy=0;entryX=0.5;entryY=0;entryDx=0;entryDy=0;fontSize=12;" parent="1" source="idJWofyPqD76pYIMuWjh-25" target="idJWofyPqD76pYIMuWjh-31" edge="1">
          <mxGeometry relative="1" as="geometry">
            <Array as="points">
              <mxPoint x="1260" y="200" />
            </Array>
          </mxGeometry>
        </mxCell>
        <mxCell id="idJWofyPqD76pYIMuWjh-34" style="edgeStyle=orthogonalEdgeStyle;rounded=0;orthogonalLoop=1;jettySize=auto;html=1;entryX=0.5;entryY=0;entryDx=0;entryDy=0;fontSize=12;" parent="1" source="idJWofyPqD76pYIMuWjh-25" target="idJWofyPqD76pYIMuWjh-29" edge="1">
          <mxGeometry relative="1" as="geometry" />
        </mxCell>
        <mxCell id="6MJ4714xYjXrP88n8pu0-2" style="edgeStyle=orthogonalEdgeStyle;rounded=0;orthogonalLoop=1;jettySize=auto;html=1;" parent="1" source="idJWofyPqD76pYIMuWjh-25" target="6MJ4714xYjXrP88n8pu0-1" edge="1">
          <mxGeometry relative="1" as="geometry" />
        </mxCell>
        <mxCell id="idJWofyPqD76pYIMuWjh-25" value="ISA" style="rounded=0;whiteSpace=wrap;html=1;fillColor=#ffe6cc;strokeColor=#d79b00;" parent="1" vertex="1">
          <mxGeometry x="1080" y="180" width="100" height="40" as="geometry" />
        </mxCell>
        <mxCell id="idJWofyPqD76pYIMuWjh-39" style="edgeStyle=orthogonalEdgeStyle;rounded=0;orthogonalLoop=1;jettySize=auto;html=1;exitX=0.5;exitY=1;exitDx=0;exitDy=0;entryX=0.5;entryY=0;entryDx=0;entryDy=0;fontSize=12;startArrow=none;" parent="1" source="idJWofyPqD76pYIMuWjh-51" target="idJWofyPqD76pYIMuWjh-36" edge="1">
          <mxGeometry relative="1" as="geometry" />
        </mxCell>
        <mxCell id="idJWofyPqD76pYIMuWjh-55" style="edgeStyle=orthogonalEdgeStyle;rounded=0;orthogonalLoop=1;jettySize=auto;html=1;entryX=0.5;entryY=0;entryDx=0;entryDy=0;fontSize=12;" parent="1" source="idJWofyPqD76pYIMuWjh-29" target="idJWofyPqD76pYIMuWjh-51" edge="1">
          <mxGeometry relative="1" as="geometry" />
        </mxCell>
        <mxCell id="idJWofyPqD76pYIMuWjh-29" value="RISC" style="rounded=0;whiteSpace=wrap;html=1;fillColor=#ffe6cc;strokeColor=#d79b00;" parent="1" vertex="1">
          <mxGeometry x="1080" y="240" width="100" height="40" as="geometry" />
        </mxCell>
        <mxCell id="idJWofyPqD76pYIMuWjh-54" style="edgeStyle=orthogonalEdgeStyle;rounded=0;orthogonalLoop=1;jettySize=auto;html=1;entryX=0;entryY=0.5;entryDx=0;entryDy=0;fontSize=12;exitX=0.5;exitY=1;exitDx=0;exitDy=0;" parent="1" source="idJWofyPqD76pYIMuWjh-30" target="idJWofyPqD76pYIMuWjh-51" edge="1">
          <mxGeometry relative="1" as="geometry" />
        </mxCell>
        <mxCell id="idJWofyPqD76pYIMuWjh-30" value="NISC" style="rounded=0;whiteSpace=wrap;html=1;fillColor=#fff2cc;strokeColor=#d6b656;" parent="1" vertex="1">
          <mxGeometry x="950" y="240" width="100" height="40" as="geometry" />
        </mxCell>
        <mxCell id="idJWofyPqD76pYIMuWjh-53" style="edgeStyle=orthogonalEdgeStyle;rounded=0;orthogonalLoop=1;jettySize=auto;html=1;exitX=0.5;exitY=1;exitDx=0;exitDy=0;entryX=1;entryY=0.5;entryDx=0;entryDy=0;fontSize=12;" parent="1" source="idJWofyPqD76pYIMuWjh-31" target="idJWofyPqD76pYIMuWjh-51" edge="1">
          <mxGeometry relative="1" as="geometry" />
        </mxCell>
        <mxCell id="idJWofyPqD76pYIMuWjh-31" value="CISC" style="rounded=0;whiteSpace=wrap;html=1;" parent="1" vertex="1">
          <mxGeometry x="1210" y="240" width="100" height="40" as="geometry" />
        </mxCell>
        <mxCell id="idJWofyPqD76pYIMuWjh-43" style="edgeStyle=orthogonalEdgeStyle;rounded=0;orthogonalLoop=1;jettySize=auto;html=1;entryX=1;entryY=0.5;entryDx=0;entryDy=0;fontSize=12;exitX=0.5;exitY=1;exitDx=0;exitDy=0;" parent="1" source="idJWofyPqD76pYIMuWjh-36" target="idJWofyPqD76pYIMuWjh-15" edge="1">
          <mxGeometry relative="1" as="geometry">
            <Array as="points">
              <mxPoint x="1130" y="500" />
            </Array>
          </mxGeometry>
        </mxCell>
        <mxCell id="idJWofyPqD76pYIMuWjh-61" style="edgeStyle=orthogonalEdgeStyle;rounded=0;orthogonalLoop=1;jettySize=auto;html=1;entryX=0;entryY=0.5;entryDx=0;entryDy=0;fontSize=12;" parent="1" source="idJWofyPqD76pYIMuWjh-36" target="idJWofyPqD76pYIMuWjh-47" edge="1">
          <mxGeometry relative="1" as="geometry" />
        </mxCell>
        <mxCell id="idJWofyPqD76pYIMuWjh-36" value="Bytecode" style="rounded=0;whiteSpace=wrap;html=1;fillColor=#ffe6cc;strokeColor=#d79b00;" parent="1" vertex="1">
          <mxGeometry x="1080" y="360" width="100" height="40" as="geometry" />
        </mxCell>
        <mxCell id="idJWofyPqD76pYIMuWjh-44" value="" style="ellipse;whiteSpace=wrap;html=1;aspect=fixed;rounded=1;fontSize=12;" parent="1" vertex="1">
          <mxGeometry x="797.5" y="497.5" width="5" height="5" as="geometry" />
        </mxCell>
        <mxCell id="idJWofyPqD76pYIMuWjh-62" style="edgeStyle=orthogonalEdgeStyle;rounded=0;orthogonalLoop=1;jettySize=auto;html=1;entryX=0.5;entryY=0;entryDx=0;entryDy=0;fontSize=12;" parent="1" source="idJWofyPqD76pYIMuWjh-47" target="idJWofyPqD76pYIMuWjh-48" edge="1">
          <mxGeometry relative="1" as="geometry" />
        </mxCell>
        <mxCell id="idJWofyPqD76pYIMuWjh-47" value="Assembly&lt;br&gt;(Assembler)" style="rounded=0;whiteSpace=wrap;html=1;" parent="1" vertex="1">
          <mxGeometry x="1210" y="360" width="100" height="40" as="geometry" />
        </mxCell>
        <mxCell id="noL6Zwn1p8a0QqXjqLaH-6" style="edgeStyle=orthogonalEdgeStyle;rounded=0;orthogonalLoop=1;jettySize=auto;html=1;exitX=0.5;exitY=1;exitDx=0;exitDy=0;entryX=0.5;entryY=0;entryDx=0;entryDy=0;" parent="1" source="idJWofyPqD76pYIMuWjh-48" target="sp9rDKvzf87ii6f6kOGq-14" edge="1">
          <mxGeometry relative="1" as="geometry">
            <mxPoint x="1260" y="530" as="targetPoint" />
          </mxGeometry>
        </mxCell>
        <mxCell id="idJWofyPqD76pYIMuWjh-48" value="High Level (Compilers)" style="rounded=0;whiteSpace=wrap;html=1;" parent="1" vertex="1">
          <mxGeometry x="1210" y="420" width="100" height="40" as="geometry" />
        </mxCell>
        <mxCell id="idJWofyPqD76pYIMuWjh-51" value="" style="ellipse;whiteSpace=wrap;html=1;aspect=fixed;rounded=1;fontSize=12;" parent="1" vertex="1">
          <mxGeometry x="1127.5" y="317.5" width="5" height="5" as="geometry" />
        </mxCell>
        <mxCell id="idJWofyPqD76pYIMuWjh-72" style="edgeStyle=orthogonalEdgeStyle;rounded=0;orthogonalLoop=1;jettySize=auto;html=1;entryX=0.5;entryY=0;entryDx=0;entryDy=0;fontSize=12;" parent="1" source="idJWofyPqD76pYIMuWjh-64" target="idJWofyPqD76pYIMuWjh-71" edge="1">
          <mxGeometry relative="1" as="geometry" />
        </mxCell>
        <mxCell id="idJWofyPqD76pYIMuWjh-89" style="edgeStyle=orthogonalEdgeStyle;rounded=0;orthogonalLoop=1;jettySize=auto;html=1;exitX=1;exitY=0.5;exitDx=0;exitDy=0;entryX=0;entryY=0.5;entryDx=0;entryDy=0;fontSize=12;" parent="1" source="idJWofyPqD76pYIMuWjh-64" target="idJWofyPqD76pYIMuWjh-79" edge="1">
          <mxGeometry relative="1" as="geometry" />
        </mxCell>
        <mxCell id="JxPK-o-dlAkDuVR7hz93-8" style="edgeStyle=orthogonalEdgeStyle;rounded=0;orthogonalLoop=1;jettySize=auto;html=1;exitX=0;exitY=0.5;exitDx=0;exitDy=0;" parent="1" source="idJWofyPqD76pYIMuWjh-64" target="JxPK-o-dlAkDuVR7hz93-3" edge="1">
          <mxGeometry relative="1" as="geometry" />
        </mxCell>
        <mxCell id="idJWofyPqD76pYIMuWjh-64" value="Binary Division" style="rounded=0;whiteSpace=wrap;html=1;fillColor=#fff2cc;strokeColor=#d6b656;" parent="1" vertex="1">
          <mxGeometry x="170" y="480" width="100" height="40" as="geometry" />
        </mxCell>
        <mxCell id="idJWofyPqD76pYIMuWjh-86" style="edgeStyle=orthogonalEdgeStyle;rounded=0;orthogonalLoop=1;jettySize=auto;html=1;entryX=0.5;entryY=0;entryDx=0;entryDy=0;fontSize=12;" parent="1" source="idJWofyPqD76pYIMuWjh-71" target="idJWofyPqD76pYIMuWjh-85" edge="1">
          <mxGeometry relative="1" as="geometry" />
        </mxCell>
        <mxCell id="idJWofyPqD76pYIMuWjh-90" style="edgeStyle=orthogonalEdgeStyle;rounded=0;orthogonalLoop=1;jettySize=auto;html=1;exitX=1;exitY=0.5;exitDx=0;exitDy=0;entryX=0;entryY=0.5;entryDx=0;entryDy=0;fontSize=12;" parent="1" source="idJWofyPqD76pYIMuWjh-71" target="idJWofyPqD76pYIMuWjh-80" edge="1">
          <mxGeometry relative="1" as="geometry" />
        </mxCell>
        <mxCell id="idJWofyPqD76pYIMuWjh-71" value="Square root" style="rounded=0;whiteSpace=wrap;html=1;fillColor=#fff2cc;strokeColor=#d6b656;" parent="1" vertex="1">
          <mxGeometry x="170" y="540" width="100" height="40" as="geometry" />
        </mxCell>
        <mxCell id="idJWofyPqD76pYIMuWjh-75" style="edgeStyle=orthogonalEdgeStyle;rounded=0;orthogonalLoop=1;jettySize=auto;html=1;entryX=0.5;entryY=0;entryDx=0;entryDy=0;fontSize=12;" parent="1" source="idJWofyPqD76pYIMuWjh-73" target="idJWofyPqD76pYIMuWjh-64" edge="1">
          <mxGeometry relative="1" as="geometry" />
        </mxCell>
        <mxCell id="idJWofyPqD76pYIMuWjh-88" style="edgeStyle=orthogonalEdgeStyle;rounded=0;orthogonalLoop=1;jettySize=auto;html=1;exitX=1;exitY=0.5;exitDx=0;exitDy=0;entryX=0;entryY=0.5;entryDx=0;entryDy=0;fontSize=12;" parent="1" source="idJWofyPqD76pYIMuWjh-73" target="idJWofyPqD76pYIMuWjh-78" edge="1">
          <mxGeometry relative="1" as="geometry" />
        </mxCell>
        <mxCell id="JxPK-o-dlAkDuVR7hz93-7" style="edgeStyle=orthogonalEdgeStyle;rounded=0;orthogonalLoop=1;jettySize=auto;html=1;exitX=0;exitY=0.5;exitDx=0;exitDy=0;" parent="1" source="idJWofyPqD76pYIMuWjh-73" target="JxPK-o-dlAkDuVR7hz93-5" edge="1">
          <mxGeometry relative="1" as="geometry" />
        </mxCell>
        <mxCell id="idJWofyPqD76pYIMuWjh-73" value="Binary Multiplication" style="rounded=0;whiteSpace=wrap;html=1;fillColor=#fff2cc;strokeColor=#d6b656;" parent="1" vertex="1">
          <mxGeometry x="170" y="420" width="100" height="40" as="geometry" />
        </mxCell>
        <mxCell id="noL6Zwn1p8a0QqXjqLaH-42" style="edgeStyle=orthogonalEdgeStyle;rounded=0;orthogonalLoop=1;jettySize=auto;html=1;entryX=0.5;entryY=0;entryDx=0;entryDy=0;" parent="1" source="idJWofyPqD76pYIMuWjh-76" target="noL6Zwn1p8a0QqXjqLaH-40" edge="1">
          <mxGeometry relative="1" as="geometry" />
        </mxCell>
        <mxCell id="idJWofyPqD76pYIMuWjh-76" value="CORDIC" style="rounded=1;whiteSpace=wrap;html=1;" parent="1" vertex="1">
          <mxGeometry x="300" y="600" width="100" height="40" as="geometry" />
        </mxCell>
        <mxCell id="idJWofyPqD76pYIMuWjh-81" style="edgeStyle=orthogonalEdgeStyle;rounded=0;orthogonalLoop=1;jettySize=auto;html=1;entryX=0.5;entryY=0;entryDx=0;entryDy=0;fontSize=12;" parent="1" source="idJWofyPqD76pYIMuWjh-78" target="idJWofyPqD76pYIMuWjh-79" edge="1">
          <mxGeometry relative="1" as="geometry" />
        </mxCell>
        <mxCell id="idJWofyPqD76pYIMuWjh-78" value="Multiplier" style="rounded=1;whiteSpace=wrap;html=1;fillColor=#fff2cc;strokeColor=#d6b656;" parent="1" vertex="1">
          <mxGeometry x="300" y="420" width="100" height="40" as="geometry" />
        </mxCell>
        <mxCell id="idJWofyPqD76pYIMuWjh-82" style="edgeStyle=orthogonalEdgeStyle;rounded=0;orthogonalLoop=1;jettySize=auto;html=1;entryX=0.5;entryY=0;entryDx=0;entryDy=0;fontSize=12;" parent="1" source="idJWofyPqD76pYIMuWjh-79" target="idJWofyPqD76pYIMuWjh-80" edge="1">
          <mxGeometry relative="1" as="geometry" />
        </mxCell>
        <mxCell id="idJWofyPqD76pYIMuWjh-79" value="Divider" style="rounded=0;whiteSpace=wrap;html=1;fillColor=#fff2cc;strokeColor=#d6b656;" parent="1" vertex="1">
          <mxGeometry x="300" y="480" width="100" height="40" as="geometry" />
        </mxCell>
        <mxCell id="idJWofyPqD76pYIMuWjh-83" style="edgeStyle=orthogonalEdgeStyle;rounded=0;orthogonalLoop=1;jettySize=auto;html=1;entryX=0.5;entryY=0;entryDx=0;entryDy=0;fontSize=12;" parent="1" source="idJWofyPqD76pYIMuWjh-80" target="idJWofyPqD76pYIMuWjh-76" edge="1">
          <mxGeometry relative="1" as="geometry" />
        </mxCell>
        <mxCell id="idJWofyPqD76pYIMuWjh-80" value="Square Root" style="rounded=0;whiteSpace=wrap;html=1;fillColor=#fff2cc;strokeColor=#d6b656;" parent="1" vertex="1">
          <mxGeometry x="300" y="540" width="100" height="40" as="geometry" />
        </mxCell>
        <mxCell id="idJWofyPqD76pYIMuWjh-87" style="edgeStyle=orthogonalEdgeStyle;rounded=0;orthogonalLoop=1;jettySize=auto;html=1;exitX=1;exitY=0.5;exitDx=0;exitDy=0;entryX=0;entryY=0.5;entryDx=0;entryDy=0;fontSize=12;" parent="1" source="idJWofyPqD76pYIMuWjh-85" target="idJWofyPqD76pYIMuWjh-76" edge="1">
          <mxGeometry relative="1" as="geometry" />
        </mxCell>
        <mxCell id="noL6Zwn1p8a0QqXjqLaH-39" style="edgeStyle=orthogonalEdgeStyle;rounded=0;orthogonalLoop=1;jettySize=auto;html=1;entryX=0.5;entryY=0;entryDx=0;entryDy=0;" parent="1" source="idJWofyPqD76pYIMuWjh-85" target="noL6Zwn1p8a0QqXjqLaH-38" edge="1">
          <mxGeometry x="1" y="30" relative="1" as="geometry">
            <mxPoint x="220" y="710.0000000000002" as="targetPoint" />
            <mxPoint x="-30" y="29" as="offset" />
          </mxGeometry>
        </mxCell>
        <mxCell id="idJWofyPqD76pYIMuWjh-85" value="Shift &amp;amp; Add" style="rounded=1;whiteSpace=wrap;html=1;" parent="1" vertex="1">
          <mxGeometry x="170" y="600" width="100" height="40" as="geometry" />
        </mxCell>
        <mxCell id="noL6Zwn1p8a0QqXjqLaH-1" value="MLFQ" style="rounded=0;whiteSpace=wrap;html=1;" parent="1" vertex="1">
          <mxGeometry x="690" y="660" width="100" height="40" as="geometry" />
        </mxCell>
        <mxCell id="noL6Zwn1p8a0QqXjqLaH-7" style="edgeStyle=orthogonalEdgeStyle;rounded=0;orthogonalLoop=1;jettySize=auto;html=1;exitX=0.5;exitY=1;exitDx=0;exitDy=0;" parent="1" source="noL6Zwn1p8a0QqXjqLaH-8" edge="1">
          <mxGeometry relative="1" as="geometry">
            <mxPoint x="1260" y="720" as="targetPoint" />
          </mxGeometry>
        </mxCell>
        <mxCell id="noL6Zwn1p8a0QqXjqLaH-8" value="Algorithms &amp;amp;&lt;br&gt;Data Structures" style="rounded=1;whiteSpace=wrap;html=1;" parent="1" vertex="1">
          <mxGeometry x="1210" y="660" width="100" height="40" as="geometry" />
        </mxCell>
        <mxCell id="noL6Zwn1p8a0QqXjqLaH-10" style="edgeStyle=orthogonalEdgeStyle;rounded=0;orthogonalLoop=1;jettySize=auto;html=1;" parent="1" source="noL6Zwn1p8a0QqXjqLaH-11" edge="1">
          <mxGeometry relative="1" as="geometry">
            <mxPoint x="870" y="660" as="targetPoint" />
          </mxGeometry>
        </mxCell>
        <mxCell id="noL6Zwn1p8a0QqXjqLaH-11" value="Branch Prediction" style="rounded=0;whiteSpace=wrap;html=1;" parent="1" vertex="1">
          <mxGeometry x="820" y="600" width="100" height="40" as="geometry" />
        </mxCell>
        <mxCell id="noL6Zwn1p8a0QqXjqLaH-16" style="edgeStyle=orthogonalEdgeStyle;rounded=0;orthogonalLoop=1;jettySize=auto;html=1;entryX=0.5;entryY=0;entryDx=0;entryDy=0;" parent="1" source="noL6Zwn1p8a0QqXjqLaH-13" target="noL6Zwn1p8a0QqXjqLaH-15" edge="1">
          <mxGeometry relative="1" as="geometry" />
        </mxCell>
        <mxCell id="noL6Zwn1p8a0QqXjqLaH-73" style="edgeStyle=orthogonalEdgeStyle;rounded=0;orthogonalLoop=1;jettySize=auto;html=1;exitX=0;exitY=0.5;exitDx=0;exitDy=0;entryX=0.5;entryY=0;entryDx=0;entryDy=0;" parent="1" source="noL6Zwn1p8a0QqXjqLaH-13" target="noL6Zwn1p8a0QqXjqLaH-74" edge="1">
          <mxGeometry relative="1" as="geometry">
            <mxPoint x="510" y="619.578947368421" as="targetPoint" />
          </mxGeometry>
        </mxCell>
        <mxCell id="noL6Zwn1p8a0QqXjqLaH-13" value="Pipelined CPU" style="rounded=0;whiteSpace=wrap;html=1;fillColor=#ffe6cc;strokeColor=#d79b00;" parent="1" vertex="1">
          <mxGeometry x="560" y="600" width="100" height="40" as="geometry" />
        </mxCell>
        <mxCell id="noL6Zwn1p8a0QqXjqLaH-15" value="Out of Order&lt;br&gt;CPU" style="rounded=0;whiteSpace=wrap;html=1;" parent="1" vertex="1">
          <mxGeometry x="560" y="660" width="100" height="40" as="geometry" />
        </mxCell>
        <mxCell id="noL6Zwn1p8a0QqXjqLaH-22" style="edgeStyle=orthogonalEdgeStyle;rounded=0;orthogonalLoop=1;jettySize=auto;html=1;" parent="1" source="noL6Zwn1p8a0QqXjqLaH-17" target="noL6Zwn1p8a0QqXjqLaH-20" edge="1">
          <mxGeometry relative="1" as="geometry" />
        </mxCell>
        <mxCell id="JxPK-o-dlAkDuVR7hz93-10" style="edgeStyle=orthogonalEdgeStyle;rounded=0;orthogonalLoop=1;jettySize=auto;html=1;exitX=0.5;exitY=1;exitDx=0;exitDy=0;entryX=0.5;entryY=0;entryDx=0;entryDy=0;" parent="1" source="noL6Zwn1p8a0QqXjqLaH-17" target="JxPK-o-dlAkDuVR7hz93-9" edge="1">
          <mxGeometry relative="1" as="geometry" />
        </mxCell>
        <mxCell id="noL6Zwn1p8a0QqXjqLaH-17" value="Binary Coded&lt;br&gt;Decimal" style="rounded=0;whiteSpace=wrap;html=1;fillColor=#fff2cc;strokeColor=#d6b656;" parent="1" vertex="1">
          <mxGeometry x="40" y="180" width="100" height="40" as="geometry" />
        </mxCell>
        <mxCell id="noL6Zwn1p8a0QqXjqLaH-63" style="edgeStyle=orthogonalEdgeStyle;rounded=0;orthogonalLoop=1;jettySize=auto;html=1;entryX=0.5;entryY=0;entryDx=0;entryDy=0;" parent="1" source="noL6Zwn1p8a0QqXjqLaH-20" target="noL6Zwn1p8a0QqXjqLaH-46" edge="1">
          <mxGeometry relative="1" as="geometry" />
        </mxCell>
        <mxCell id="noL6Zwn1p8a0QqXjqLaH-20" value="Double Dabble" style="rounded=0;whiteSpace=wrap;html=1;fillColor=#fff2cc;strokeColor=#d6b656;" parent="1" vertex="1">
          <mxGeometry x="-90" y="180" width="100" height="40" as="geometry" />
        </mxCell>
        <mxCell id="noL6Zwn1p8a0QqXjqLaH-29" style="edgeStyle=orthogonalEdgeStyle;rounded=0;orthogonalLoop=1;jettySize=auto;html=1;entryX=0.5;entryY=0;entryDx=0;entryDy=0;" parent="1" source="noL6Zwn1p8a0QqXjqLaH-28" target="noL6Zwn1p8a0QqXjqLaH-8" edge="1">
          <mxGeometry relative="1" as="geometry" />
        </mxCell>
        <mxCell id="noL6Zwn1p8a0QqXjqLaH-34" style="edgeStyle=orthogonalEdgeStyle;rounded=0;orthogonalLoop=1;jettySize=auto;html=1;entryX=0.5;entryY=0;entryDx=0;entryDy=0;" parent="1" source="noL6Zwn1p8a0QqXjqLaH-28" target="noL6Zwn1p8a0QqXjqLaH-33" edge="1">
          <mxGeometry relative="1" as="geometry" />
        </mxCell>
        <mxCell id="noL6Zwn1p8a0QqXjqLaH-35" style="edgeStyle=orthogonalEdgeStyle;rounded=0;orthogonalLoop=1;jettySize=auto;html=1;entryX=0.5;entryY=0;entryDx=0;entryDy=0;" parent="1" source="noL6Zwn1p8a0QqXjqLaH-28" target="noL6Zwn1p8a0QqXjqLaH-31" edge="1">
          <mxGeometry relative="1" as="geometry" />
        </mxCell>
        <mxCell id="noL6Zwn1p8a0QqXjqLaH-28" value="High Level Languages" style="rounded=0;whiteSpace=wrap;html=1;" parent="1" vertex="1">
          <mxGeometry x="1210" y="600" width="100" height="40" as="geometry" />
        </mxCell>
        <mxCell id="noL6Zwn1p8a0QqXjqLaH-30" style="edgeStyle=orthogonalEdgeStyle;rounded=0;orthogonalLoop=1;jettySize=auto;html=1;exitX=0.5;exitY=1;exitDx=0;exitDy=0;" parent="1" source="noL6Zwn1p8a0QqXjqLaH-31" edge="1">
          <mxGeometry relative="1" as="geometry">
            <mxPoint x="1130" y="719.9999999999998" as="targetPoint" />
          </mxGeometry>
        </mxCell>
        <mxCell id="noL6Zwn1p8a0QqXjqLaH-31" value="Functional&lt;br&gt;Programming" style="rounded=1;whiteSpace=wrap;html=1;" parent="1" vertex="1">
          <mxGeometry x="1080" y="660" width="100" height="40" as="geometry" />
        </mxCell>
        <mxCell id="noL6Zwn1p8a0QqXjqLaH-32" style="edgeStyle=orthogonalEdgeStyle;rounded=0;orthogonalLoop=1;jettySize=auto;html=1;exitX=0.5;exitY=1;exitDx=0;exitDy=0;" parent="1" source="noL6Zwn1p8a0QqXjqLaH-33" edge="1">
          <mxGeometry relative="1" as="geometry">
            <mxPoint x="1390" y="719.9999999999998" as="targetPoint" />
          </mxGeometry>
        </mxCell>
        <mxCell id="noL6Zwn1p8a0QqXjqLaH-33" value="Object Oriented Programming" style="rounded=1;whiteSpace=wrap;html=1;" parent="1" vertex="1">
          <mxGeometry x="1340" y="660" width="100" height="40" as="geometry" />
        </mxCell>
        <mxCell id="noL6Zwn1p8a0QqXjqLaH-41" style="edgeStyle=orthogonalEdgeStyle;rounded=0;orthogonalLoop=1;jettySize=auto;html=1;entryX=0;entryY=0.5;entryDx=0;entryDy=0;" parent="1" source="noL6Zwn1p8a0QqXjqLaH-38" target="noL6Zwn1p8a0QqXjqLaH-40" edge="1">
          <mxGeometry relative="1" as="geometry" />
        </mxCell>
        <mxCell id="noL6Zwn1p8a0QqXjqLaH-38" value="Floating Point&lt;br&gt;Operations" style="rounded=1;whiteSpace=wrap;html=1;" parent="1" vertex="1">
          <mxGeometry x="170" y="660" width="100" height="40" as="geometry" />
        </mxCell>
        <mxCell id="noL6Zwn1p8a0QqXjqLaH-40" value="Floating Point&lt;br&gt;Unit" style="rounded=0;whiteSpace=wrap;html=1;" parent="1" vertex="1">
          <mxGeometry x="300" y="660" width="100" height="40" as="geometry" />
        </mxCell>
        <mxCell id="noL6Zwn1p8a0QqXjqLaH-64" style="edgeStyle=orthogonalEdgeStyle;rounded=0;orthogonalLoop=1;jettySize=auto;html=1;exitX=0.5;exitY=1;exitDx=0;exitDy=0;entryX=0.5;entryY=0;entryDx=0;entryDy=0;" parent="1" source="noL6Zwn1p8a0QqXjqLaH-46" target="noL6Zwn1p8a0QqXjqLaH-50" edge="1">
          <mxGeometry relative="1" as="geometry" />
        </mxCell>
        <mxCell id="noL6Zwn1p8a0QqXjqLaH-46" value="7 Segment&lt;br&gt;Display" style="rounded=0;whiteSpace=wrap;html=1;fillColor=#fff2cc;strokeColor=#d6b656;" parent="1" vertex="1">
          <mxGeometry x="-90" y="240" width="100" height="40" as="geometry" />
        </mxCell>
        <mxCell id="noL6Zwn1p8a0QqXjqLaH-62" style="edgeStyle=orthogonalEdgeStyle;rounded=0;orthogonalLoop=1;jettySize=auto;html=1;entryX=0.5;entryY=0;entryDx=0;entryDy=0;" parent="1" source="noL6Zwn1p8a0QqXjqLaH-50" target="noL6Zwn1p8a0QqXjqLaH-61" edge="1">
          <mxGeometry relative="1" as="geometry" />
        </mxCell>
        <mxCell id="noL6Zwn1p8a0QqXjqLaH-50" value="Character Set" style="rounded=0;whiteSpace=wrap;html=1;" parent="1" vertex="1">
          <mxGeometry x="-90" y="300" width="100" height="40" as="geometry" />
        </mxCell>
        <mxCell id="noL6Zwn1p8a0QqXjqLaH-55" style="edgeStyle=orthogonalEdgeStyle;rounded=0;orthogonalLoop=1;jettySize=auto;html=1;entryX=0.5;entryY=0;entryDx=0;entryDy=0;" parent="1" source="noL6Zwn1p8a0QqXjqLaH-52" target="noL6Zwn1p8a0QqXjqLaH-54" edge="1">
          <mxGeometry relative="1" as="geometry" />
        </mxCell>
        <mxCell id="noL6Zwn1p8a0QqXjqLaH-52" value="Pixel Plotter" style="rounded=0;whiteSpace=wrap;html=1;fillColor=#fff2cc;strokeColor=#d6b656;" parent="1" vertex="1">
          <mxGeometry x="-230" y="180" width="100" height="40" as="geometry" />
        </mxCell>
        <mxCell id="noL6Zwn1p8a0QqXjqLaH-57" style="edgeStyle=orthogonalEdgeStyle;rounded=0;orthogonalLoop=1;jettySize=auto;html=1;entryX=0.5;entryY=0;entryDx=0;entryDy=0;" parent="1" source="noL6Zwn1p8a0QqXjqLaH-54" target="noL6Zwn1p8a0QqXjqLaH-56" edge="1">
          <mxGeometry relative="1" as="geometry" />
        </mxCell>
        <mxCell id="noL6Zwn1p8a0QqXjqLaH-54" value="Line Drawer" style="rounded=1;whiteSpace=wrap;html=1;fillColor=#fff2cc;strokeColor=#d6b656;" parent="1" vertex="1">
          <mxGeometry x="-230" y="240" width="100" height="40" as="geometry" />
        </mxCell>
        <mxCell id="noL6Zwn1p8a0QqXjqLaH-59" style="edgeStyle=orthogonalEdgeStyle;rounded=0;orthogonalLoop=1;jettySize=auto;html=1;entryX=0.5;entryY=0;entryDx=0;entryDy=0;" parent="1" source="noL6Zwn1p8a0QqXjqLaH-56" target="noL6Zwn1p8a0QqXjqLaH-58" edge="1">
          <mxGeometry relative="1" as="geometry" />
        </mxCell>
        <mxCell id="noL6Zwn1p8a0QqXjqLaH-56" value="Shape Drawing" style="rounded=1;whiteSpace=wrap;html=1;" parent="1" vertex="1">
          <mxGeometry x="-230" y="300" width="100" height="40" as="geometry" />
        </mxCell>
        <mxCell id="noL6Zwn1p8a0QqXjqLaH-68" style="edgeStyle=orthogonalEdgeStyle;rounded=0;orthogonalLoop=1;jettySize=auto;html=1;entryX=0.5;entryY=0;entryDx=0;entryDy=0;" parent="1" source="noL6Zwn1p8a0QqXjqLaH-58" target="noL6Zwn1p8a0QqXjqLaH-67" edge="1">
          <mxGeometry relative="1" as="geometry" />
        </mxCell>
        <mxCell id="noL6Zwn1p8a0QqXjqLaH-58" value="Simple GPU" style="rounded=0;whiteSpace=wrap;html=1;" parent="1" vertex="1">
          <mxGeometry x="-230" y="360" width="100" height="40" as="geometry" />
        </mxCell>
        <mxCell id="noL6Zwn1p8a0QqXjqLaH-61" value="Console&lt;br&gt;Text Rendering" style="rounded=0;whiteSpace=wrap;html=1;" parent="1" vertex="1">
          <mxGeometry x="-90" y="360" width="100" height="40" as="geometry" />
        </mxCell>
        <mxCell id="noL6Zwn1p8a0QqXjqLaH-70" style="edgeStyle=orthogonalEdgeStyle;rounded=0;orthogonalLoop=1;jettySize=auto;html=1;entryX=0.5;entryY=0;entryDx=0;entryDy=0;" parent="1" source="noL6Zwn1p8a0QqXjqLaH-67" target="noL6Zwn1p8a0QqXjqLaH-69" edge="1">
          <mxGeometry relative="1" as="geometry" />
        </mxCell>
        <mxCell id="noL6Zwn1p8a0QqXjqLaH-67" value="3D to 2D&lt;br&gt;Projectors" style="rounded=1;whiteSpace=wrap;html=1;" parent="1" vertex="1">
          <mxGeometry x="-230" y="420" width="100" height="40" as="geometry" />
        </mxCell>
        <mxCell id="noL6Zwn1p8a0QqXjqLaH-72" style="edgeStyle=orthogonalEdgeStyle;rounded=0;orthogonalLoop=1;jettySize=auto;html=1;exitX=0.5;exitY=1;exitDx=0;exitDy=0;entryX=0.5;entryY=0;entryDx=0;entryDy=0;" parent="1" source="noL6Zwn1p8a0QqXjqLaH-69" target="noL6Zwn1p8a0QqXjqLaH-71" edge="1">
          <mxGeometry relative="1" as="geometry" />
        </mxCell>
        <mxCell id="noL6Zwn1p8a0QqXjqLaH-69" value="Rendering Shapes" style="rounded=0;whiteSpace=wrap;html=1;" parent="1" vertex="1">
          <mxGeometry x="-230" y="480" width="100" height="40" as="geometry" />
        </mxCell>
        <mxCell id="noL6Zwn1p8a0QqXjqLaH-71" value="GPU" style="rounded=0;whiteSpace=wrap;html=1;" parent="1" vertex="1">
          <mxGeometry x="-230" y="540" width="100" height="40" as="geometry" />
        </mxCell>
        <mxCell id="noL6Zwn1p8a0QqXjqLaH-74" value="Running an OS" style="rounded=1;whiteSpace=wrap;html=1;" parent="1" vertex="1">
          <mxGeometry x="430" y="660" width="100" height="40" as="geometry" />
        </mxCell>
        <mxCell id="9Yh9oi0NJUhHSXKj6lHp-1" style="edgeStyle=orthogonalEdgeStyle;rounded=0;orthogonalLoop=1;jettySize=auto;html=1;" parent="1" source="9Yh9oi0NJUhHSXKj6lHp-2" edge="1">
          <mxGeometry relative="1" as="geometry">
            <mxPoint x="1000" y="600" as="targetPoint" />
          </mxGeometry>
        </mxCell>
        <mxCell id="9Yh9oi0NJUhHSXKj6lHp-2" value="Recursion&lt;br&gt;(Stack)" style="rounded=0;whiteSpace=wrap;html=1;" parent="1" vertex="1">
          <mxGeometry x="950" y="540" width="100" height="40" as="geometry" />
        </mxCell>
        <mxCell id="sp9rDKvzf87ii6f6kOGq-3" value="" style="triangle;whiteSpace=wrap;html=1;rotation=90;fillColor=#00A300;strokeColor=#005700;fontColor=#ffffff;" parent="1" vertex="1">
          <mxGeometry x="190" y="100" width="60" height="80" as="geometry" />
        </mxCell>
        <mxCell id="sp9rDKvzf87ii6f6kOGq-4" value="Start" style="text;html=1;strokeColor=none;fillColor=none;align=center;verticalAlign=middle;whiteSpace=wrap;rounded=0;" parent="1" vertex="1">
          <mxGeometry x="190" y="110" width="60" height="30" as="geometry" />
        </mxCell>
        <mxCell id="sp9rDKvzf87ii6f6kOGq-5" value="" style="triangle;whiteSpace=wrap;html=1;rotation=90;fillColor=#00A300;strokeColor=#005700;fontColor=#ffffff;" parent="1" vertex="1">
          <mxGeometry x="-210" y="100" width="60" height="80" as="geometry" />
        </mxCell>
        <mxCell id="sp9rDKvzf87ii6f6kOGq-6" value="Start" style="text;html=1;strokeColor=none;fillColor=none;align=center;verticalAlign=middle;whiteSpace=wrap;rounded=0;" parent="1" vertex="1">
          <mxGeometry x="-210" y="110" width="60" height="30" as="geometry" />
        </mxCell>
        <mxCell id="sp9rDKvzf87ii6f6kOGq-11" value="" style="triangle;whiteSpace=wrap;html=1;rotation=90;fillColor=#00A300;strokeColor=#005700;fontColor=#ffffff;" parent="1" vertex="1">
          <mxGeometry x="1100" y="100" width="60" height="80" as="geometry" />
        </mxCell>
        <mxCell id="sp9rDKvzf87ii6f6kOGq-12" value="Start" style="text;html=1;strokeColor=none;fillColor=none;align=center;verticalAlign=middle;whiteSpace=wrap;rounded=0;" parent="1" vertex="1">
          <mxGeometry x="1100" y="110" width="60" height="30" as="geometry" />
        </mxCell>
        <mxCell id="sp9rDKvzf87ii6f6kOGq-13" value="" style="triangle;whiteSpace=wrap;html=1;rotation=90;fillColor=#00A300;strokeColor=#005700;fontColor=#ffffff;" parent="1" vertex="1">
          <mxGeometry x="1230" y="520" width="60" height="80" as="geometry" />
        </mxCell>
        <mxCell id="sp9rDKvzf87ii6f6kOGq-14" value="Start" style="text;html=1;strokeColor=none;fillColor=none;align=center;verticalAlign=middle;whiteSpace=wrap;rounded=0;" parent="1" vertex="1">
          <mxGeometry x="1230" y="530" width="60" height="30" as="geometry" />
        </mxCell>
        <mxCell id="JxPK-o-dlAkDuVR7hz93-1" style="edgeStyle=orthogonalEdgeStyle;rounded=0;orthogonalLoop=1;jettySize=auto;html=1;entryX=0.5;entryY=0;entryDx=0;entryDy=0;fontSize=12;" parent="1" source="JxPK-o-dlAkDuVR7hz93-2" target="JxPK-o-dlAkDuVR7hz93-5" edge="1">
          <mxGeometry relative="1" as="geometry" />
        </mxCell>
        <mxCell id="JxPK-o-dlAkDuVR7hz93-2" value="BCD subtraction" style="rounded=0;whiteSpace=wrap;html=1;fillColor=#fff2cc;strokeColor=#d6b656;" parent="1" vertex="1">
          <mxGeometry x="40" y="360" width="100" height="40" as="geometry" />
        </mxCell>
        <mxCell id="JxPK-o-dlAkDuVR7hz93-3" value="BCD Division" style="rounded=0;whiteSpace=wrap;html=1;fillColor=#fff2cc;strokeColor=#d6b656;" parent="1" vertex="1">
          <mxGeometry x="40" y="480" width="100" height="40" as="geometry" />
        </mxCell>
        <mxCell id="JxPK-o-dlAkDuVR7hz93-4" style="edgeStyle=orthogonalEdgeStyle;rounded=0;orthogonalLoop=1;jettySize=auto;html=1;entryX=0.5;entryY=0;entryDx=0;entryDy=0;fontSize=12;" parent="1" source="JxPK-o-dlAkDuVR7hz93-5" target="JxPK-o-dlAkDuVR7hz93-3" edge="1">
          <mxGeometry relative="1" as="geometry" />
        </mxCell>
        <mxCell id="JxPK-o-dlAkDuVR7hz93-5" value="BCD Multiplication" style="rounded=0;whiteSpace=wrap;html=1;fillColor=#fff2cc;strokeColor=#d6b656;" parent="1" vertex="1">
          <mxGeometry x="40" y="420" width="100" height="40" as="geometry" />
        </mxCell>
        <mxCell id="JxPK-o-dlAkDuVR7hz93-12" style="edgeStyle=orthogonalEdgeStyle;rounded=0;orthogonalLoop=1;jettySize=auto;html=1;exitX=0.5;exitY=1;exitDx=0;exitDy=0;entryX=0.5;entryY=0;entryDx=0;entryDy=0;" parent="1" source="JxPK-o-dlAkDuVR7hz93-9" target="JxPK-o-dlAkDuVR7hz93-2" edge="1">
          <mxGeometry relative="1" as="geometry" />
        </mxCell>
        <mxCell id="JxPK-o-dlAkDuVR7hz93-9" value="Binary Coded&lt;br&gt;Decimal" style="rounded=0;whiteSpace=wrap;html=1;fillColor=#fff2cc;strokeColor=#d6b656;" parent="1" vertex="1">
          <mxGeometry x="40" y="240" width="100" height="40" as="geometry" />
        </mxCell>
        <mxCell id="6MJ4714xYjXrP88n8pu0-3" style="edgeStyle=orthogonalEdgeStyle;rounded=0;orthogonalLoop=1;jettySize=auto;html=1;entryX=1;entryY=0.5;entryDx=0;entryDy=0;" parent="1" source="6MJ4714xYjXrP88n8pu0-1" target="idJWofyPqD76pYIMuWjh-51" edge="1">
          <mxGeometry relative="1" as="geometry">
            <Array as="points">
              <mxPoint x="1390" y="320" />
            </Array>
          </mxGeometry>
        </mxCell>
        <mxCell id="6MJ4714xYjXrP88n8pu0-1" value="VLIW" style="rounded=0;whiteSpace=wrap;html=1;" parent="1" vertex="1">
          <mxGeometry x="1340" y="240" width="100" height="40" as="geometry" />
        </mxCell>
        <mxCell id="kPCNCSyx_imgjheL72AS-1" value="" style="edgeStyle=orthogonalEdgeStyle;rounded=0;orthogonalLoop=1;jettySize=auto;html=1;fontSize=14;endArrow=none;" edge="1" parent="1" source="T8rQtC1NhWbE-KgKJLJK-13">
          <mxGeometry relative="1" as="geometry">
            <mxPoint x="680" y="120" as="sourcePoint" />
            <mxPoint x="610" y="200" as="targetPoint" />
          </mxGeometry>
        </mxCell>
        <mxCell id="kPCNCSyx_imgjheL72AS-3" value="&lt;font color=&quot;#000000&quot;&gt;start&lt;/font&gt;" style="triangle;whiteSpace=wrap;html=1;rotation=90;fillColor=#00A300;strokeColor=#005700;fontColor=#ffffff;direction=east;align=center;horizontal=0;verticalAlign=top;" vertex="1" parent="1">
          <mxGeometry x="-413" y="100" width="60" height="80" as="geometry" />
        </mxCell>
        <mxCell id="kPCNCSyx_imgjheL72AS-6" value="serial" style="rounded=1;whiteSpace=wrap;html=1;fillColor=#fff2cc;strokeColor=#d6b656;" vertex="1" parent="1">
          <mxGeometry x="-433" y="180" width="100" height="40" as="geometry" />
        </mxCell>
      </root>
    </mxGraphModel>
  </diagram>
  <diagram id="Djy4OmKW3Ihp5cy1kzOE" name="Adders">
    <mxGraphModel dx="1050" dy="581" grid="1" gridSize="10" guides="1" tooltips="1" connect="1" arrows="1" fold="1" page="1" pageScale="1" pageWidth="827" pageHeight="1169" math="0" shadow="0">
      <root>
        <mxCell id="0" />
        <mxCell id="1" parent="0" />
        <mxCell id="SWbrU5enwoQFuYJilpyL-10" style="edgeStyle=orthogonalEdgeStyle;rounded=0;orthogonalLoop=1;jettySize=auto;html=1;entryX=0.5;entryY=0;entryDx=0;entryDy=0;" parent="1" source="SWbrU5enwoQFuYJilpyL-1" target="SWbrU5enwoQFuYJilpyL-6" edge="1">
          <mxGeometry relative="1" as="geometry" />
        </mxCell>
        <mxCell id="SWbrU5enwoQFuYJilpyL-11" style="edgeStyle=orthogonalEdgeStyle;rounded=0;orthogonalLoop=1;jettySize=auto;html=1;entryX=0.5;entryY=0;entryDx=0;entryDy=0;" parent="1" source="SWbrU5enwoQFuYJilpyL-1" target="SWbrU5enwoQFuYJilpyL-2" edge="1">
          <mxGeometry relative="1" as="geometry" />
        </mxCell>
        <mxCell id="SWbrU5enwoQFuYJilpyL-13" style="edgeStyle=orthogonalEdgeStyle;rounded=0;orthogonalLoop=1;jettySize=auto;html=1;exitX=1;exitY=0.5;exitDx=0;exitDy=0;entryX=0.5;entryY=0;entryDx=0;entryDy=0;" parent="1" source="SWbrU5enwoQFuYJilpyL-1" target="SWbrU5enwoQFuYJilpyL-12" edge="1">
          <mxGeometry relative="1" as="geometry" />
        </mxCell>
        <mxCell id="SWbrU5enwoQFuYJilpyL-15" style="edgeStyle=orthogonalEdgeStyle;rounded=0;orthogonalLoop=1;jettySize=auto;html=1;exitX=1;exitY=0.5;exitDx=0;exitDy=0;entryX=0.5;entryY=0;entryDx=0;entryDy=0;" parent="1" source="SWbrU5enwoQFuYJilpyL-1" target="SWbrU5enwoQFuYJilpyL-14" edge="1">
          <mxGeometry relative="1" as="geometry" />
        </mxCell>
        <mxCell id="SWbrU5enwoQFuYJilpyL-1" value="Ripple carry adder" style="rounded=0;whiteSpace=wrap;html=1;" parent="1" vertex="1">
          <mxGeometry x="360" y="140" width="100" height="40" as="geometry" />
        </mxCell>
        <mxCell id="SWbrU5enwoQFuYJilpyL-9" style="edgeStyle=orthogonalEdgeStyle;rounded=0;orthogonalLoop=1;jettySize=auto;html=1;exitX=0.5;exitY=1;exitDx=0;exitDy=0;entryX=0.5;entryY=0;entryDx=0;entryDy=0;" parent="1" source="SWbrU5enwoQFuYJilpyL-2" target="SWbrU5enwoQFuYJilpyL-3" edge="1">
          <mxGeometry relative="1" as="geometry" />
        </mxCell>
        <mxCell id="SWbrU5enwoQFuYJilpyL-20" style="edgeStyle=orthogonalEdgeStyle;rounded=0;orthogonalLoop=1;jettySize=auto;html=1;entryX=0.5;entryY=0;entryDx=0;entryDy=0;" parent="1" source="SWbrU5enwoQFuYJilpyL-2" target="SWbrU5enwoQFuYJilpyL-18" edge="1">
          <mxGeometry relative="1" as="geometry" />
        </mxCell>
        <mxCell id="SWbrU5enwoQFuYJilpyL-2" value="Carry look ahead&lt;br&gt;Adder" style="rounded=0;whiteSpace=wrap;html=1;" parent="1" vertex="1">
          <mxGeometry x="360" y="260" width="100" height="40" as="geometry" />
        </mxCell>
        <mxCell id="SWbrU5enwoQFuYJilpyL-3" value="Carry look everywhere" style="rounded=0;whiteSpace=wrap;html=1;" parent="1" vertex="1">
          <mxGeometry x="360" y="320" width="100" height="40" as="geometry" />
        </mxCell>
        <mxCell id="SWbrU5enwoQFuYJilpyL-8" style="edgeStyle=orthogonalEdgeStyle;rounded=0;orthogonalLoop=1;jettySize=auto;html=1;entryX=0.5;entryY=0;entryDx=0;entryDy=0;" parent="1" source="SWbrU5enwoQFuYJilpyL-4" target="SWbrU5enwoQFuYJilpyL-5" edge="1">
          <mxGeometry relative="1" as="geometry" />
        </mxCell>
        <mxCell id="SWbrU5enwoQFuYJilpyL-4" value="Ladner-Fischer&lt;br&gt;Adder" style="rounded=0;whiteSpace=wrap;html=1;" parent="1" vertex="1">
          <mxGeometry x="240" y="380" width="100" height="40" as="geometry" />
        </mxCell>
        <mxCell id="SWbrU5enwoQFuYJilpyL-5" value="Kogge-Stone&lt;br&gt;Adder" style="rounded=0;whiteSpace=wrap;html=1;" parent="1" vertex="1">
          <mxGeometry x="240" y="440" width="100" height="40" as="geometry" />
        </mxCell>
        <mxCell id="SWbrU5enwoQFuYJilpyL-6" value="Carry save&lt;br&gt;Adder" style="rounded=0;whiteSpace=wrap;html=1;" parent="1" vertex="1">
          <mxGeometry x="230" y="200" width="100" height="40" as="geometry" />
        </mxCell>
        <mxCell id="SWbrU5enwoQFuYJilpyL-12" value="Instant carry&lt;br&gt;Adder" style="rounded=0;whiteSpace=wrap;html=1;" parent="1" vertex="1">
          <mxGeometry x="490" y="200" width="100" height="40" as="geometry" />
        </mxCell>
        <mxCell id="SWbrU5enwoQFuYJilpyL-17" style="edgeStyle=orthogonalEdgeStyle;rounded=0;orthogonalLoop=1;jettySize=auto;html=1;entryX=0.5;entryY=0;entryDx=0;entryDy=0;" parent="1" source="SWbrU5enwoQFuYJilpyL-14" target="SWbrU5enwoQFuYJilpyL-16" edge="1">
          <mxGeometry relative="1" as="geometry" />
        </mxCell>
        <mxCell id="SWbrU5enwoQFuYJilpyL-14" value="Carry Cancel Adder" style="rounded=0;whiteSpace=wrap;html=1;" parent="1" vertex="1">
          <mxGeometry x="620" y="200" width="100" height="40" as="geometry" />
        </mxCell>
        <mxCell id="SWbrU5enwoQFuYJilpyL-16" value="3tick CCA" style="rounded=0;whiteSpace=wrap;html=1;" parent="1" vertex="1">
          <mxGeometry x="620" y="260" width="100" height="40" as="geometry" />
        </mxCell>
        <mxCell id="SWbrU5enwoQFuYJilpyL-19" style="edgeStyle=orthogonalEdgeStyle;rounded=0;orthogonalLoop=1;jettySize=auto;html=1;entryX=0.5;entryY=0;entryDx=0;entryDy=0;" parent="1" source="SWbrU5enwoQFuYJilpyL-18" target="SWbrU5enwoQFuYJilpyL-4" edge="1">
          <mxGeometry relative="1" as="geometry" />
        </mxCell>
        <mxCell id="SWbrU5enwoQFuYJilpyL-18" value="Brent-Kung Adder" style="rounded=0;whiteSpace=wrap;html=1;" parent="1" vertex="1">
          <mxGeometry x="240" y="320" width="100" height="40" as="geometry" />
        </mxCell>
        <mxCell id="sx3pepkX9an01IpIz8rY-1" value="" style="triangle;whiteSpace=wrap;html=1;rotation=90;fillColor=#00A300;strokeColor=#005700;fontColor=#ffffff;" parent="1" vertex="1">
          <mxGeometry x="380" y="60" width="60" height="80" as="geometry" />
        </mxCell>
        <mxCell id="sx3pepkX9an01IpIz8rY-2" value="Start" style="text;html=1;strokeColor=none;fillColor=none;align=center;verticalAlign=middle;whiteSpace=wrap;rounded=0;" parent="1" vertex="1">
          <mxGeometry x="380" y="70" width="60" height="30" as="geometry" />
        </mxCell>
      </root>
    </mxGraphModel>
  </diagram>
  <diagram id="x8H9e7qvpK3gjb9wUWKh" name="Logic Gates">
    <mxGraphModel dx="724" dy="401" grid="1" gridSize="10" guides="1" tooltips="1" connect="1" arrows="1" fold="1" page="1" pageScale="1" pageWidth="827" pageHeight="1169" math="0" shadow="0">
      <root>
        <mxCell id="0" />
        <mxCell id="1" parent="0" />
        <mxCell id="GOrolCMW2EJZV3VqKKBI-11" style="edgeStyle=orthogonalEdgeStyle;rounded=0;orthogonalLoop=1;jettySize=auto;html=1;exitX=0.5;exitY=1;exitDx=0;exitDy=0;entryX=0.5;entryY=0;entryDx=0;entryDy=0;" parent="1" source="GOrolCMW2EJZV3VqKKBI-1" target="GOrolCMW2EJZV3VqKKBI-5" edge="1">
          <mxGeometry relative="1" as="geometry" />
        </mxCell>
        <mxCell id="GOrolCMW2EJZV3VqKKBI-1" value="Logic gates" style="rounded=0;whiteSpace=wrap;html=1;" parent="1" vertex="1">
          <mxGeometry x="360" y="100" width="100" height="40" as="geometry" />
        </mxCell>
        <mxCell id="GOrolCMW2EJZV3VqKKBI-17" style="edgeStyle=orthogonalEdgeStyle;rounded=0;orthogonalLoop=1;jettySize=auto;html=1;exitX=0.5;exitY=1;exitDx=0;exitDy=0;entryX=0.5;entryY=0;entryDx=0;entryDy=0;" parent="1" source="GOrolCMW2EJZV3VqKKBI-4" target="GOrolCMW2EJZV3VqKKBI-8" edge="1">
          <mxGeometry relative="1" as="geometry" />
        </mxCell>
        <mxCell id="GOrolCMW2EJZV3VqKKBI-4" value="AND" style="rounded=0;whiteSpace=wrap;html=1;" parent="1" vertex="1">
          <mxGeometry x="360" y="220" width="100" height="40" as="geometry" />
        </mxCell>
        <mxCell id="GOrolCMW2EJZV3VqKKBI-12" style="edgeStyle=orthogonalEdgeStyle;rounded=0;orthogonalLoop=1;jettySize=auto;html=1;exitX=0.5;exitY=1;exitDx=0;exitDy=0;entryX=0.5;entryY=0;entryDx=0;entryDy=0;" parent="1" source="GOrolCMW2EJZV3VqKKBI-5" target="GOrolCMW2EJZV3VqKKBI-4" edge="1">
          <mxGeometry relative="1" as="geometry" />
        </mxCell>
        <mxCell id="GOrolCMW2EJZV3VqKKBI-13" style="edgeStyle=orthogonalEdgeStyle;rounded=0;orthogonalLoop=1;jettySize=auto;html=1;exitX=0;exitY=0.5;exitDx=0;exitDy=0;entryX=0.5;entryY=0;entryDx=0;entryDy=0;" parent="1" source="GOrolCMW2EJZV3VqKKBI-5" target="GOrolCMW2EJZV3VqKKBI-6" edge="1">
          <mxGeometry relative="1" as="geometry" />
        </mxCell>
        <mxCell id="GOrolCMW2EJZV3VqKKBI-14" style="edgeStyle=orthogonalEdgeStyle;rounded=0;orthogonalLoop=1;jettySize=auto;html=1;exitX=1;exitY=0.5;exitDx=0;exitDy=0;entryX=0.5;entryY=0;entryDx=0;entryDy=0;" parent="1" source="GOrolCMW2EJZV3VqKKBI-5" target="GOrolCMW2EJZV3VqKKBI-7" edge="1">
          <mxGeometry relative="1" as="geometry" />
        </mxCell>
        <mxCell id="GOrolCMW2EJZV3VqKKBI-5" value="NOT" style="rounded=0;whiteSpace=wrap;html=1;" parent="1" vertex="1">
          <mxGeometry x="360" y="160" width="100" height="40" as="geometry" />
        </mxCell>
        <mxCell id="GOrolCMW2EJZV3VqKKBI-15" style="edgeStyle=orthogonalEdgeStyle;rounded=0;orthogonalLoop=1;jettySize=auto;html=1;exitX=0.5;exitY=1;exitDx=0;exitDy=0;entryX=0.5;entryY=0;entryDx=0;entryDy=0;" parent="1" source="GOrolCMW2EJZV3VqKKBI-6" target="GOrolCMW2EJZV3VqKKBI-9" edge="1">
          <mxGeometry relative="1" as="geometry" />
        </mxCell>
        <mxCell id="GOrolCMW2EJZV3VqKKBI-24" style="edgeStyle=orthogonalEdgeStyle;rounded=0;orthogonalLoop=1;jettySize=auto;html=1;" parent="1" source="GOrolCMW2EJZV3VqKKBI-6" target="GOrolCMW2EJZV3VqKKBI-21" edge="1">
          <mxGeometry relative="1" as="geometry" />
        </mxCell>
        <mxCell id="GOrolCMW2EJZV3VqKKBI-6" value="OR" style="rounded=0;whiteSpace=wrap;html=1;" parent="1" vertex="1">
          <mxGeometry x="230" y="220" width="100" height="40" as="geometry" />
        </mxCell>
        <mxCell id="GOrolCMW2EJZV3VqKKBI-16" style="edgeStyle=orthogonalEdgeStyle;rounded=0;orthogonalLoop=1;jettySize=auto;html=1;exitX=0.5;exitY=1;exitDx=0;exitDy=0;entryX=0.5;entryY=0;entryDx=0;entryDy=0;" parent="1" source="GOrolCMW2EJZV3VqKKBI-7" target="GOrolCMW2EJZV3VqKKBI-10" edge="1">
          <mxGeometry relative="1" as="geometry" />
        </mxCell>
        <mxCell id="GOrolCMW2EJZV3VqKKBI-7" value="XOR" style="rounded=0;whiteSpace=wrap;html=1;" parent="1" vertex="1">
          <mxGeometry x="490" y="220" width="100" height="40" as="geometry" />
        </mxCell>
        <mxCell id="GOrolCMW2EJZV3VqKKBI-8" value="NAND" style="rounded=0;whiteSpace=wrap;html=1;" parent="1" vertex="1">
          <mxGeometry x="360" y="280" width="100" height="40" as="geometry" />
        </mxCell>
        <mxCell id="GOrolCMW2EJZV3VqKKBI-9" value="NOR" style="rounded=0;whiteSpace=wrap;html=1;" parent="1" vertex="1">
          <mxGeometry x="230" y="280" width="100" height="40" as="geometry" />
        </mxCell>
        <mxCell id="GOrolCMW2EJZV3VqKKBI-10" value="XNOR" style="rounded=0;whiteSpace=wrap;html=1;" parent="1" vertex="1">
          <mxGeometry x="490" y="280" width="100" height="40" as="geometry" />
        </mxCell>
        <mxCell id="GOrolCMW2EJZV3VqKKBI-23" style="edgeStyle=orthogonalEdgeStyle;rounded=0;orthogonalLoop=1;jettySize=auto;html=1;exitX=0.5;exitY=1;exitDx=0;exitDy=0;entryX=0.5;entryY=0;entryDx=0;entryDy=0;" parent="1" source="GOrolCMW2EJZV3VqKKBI-21" target="GOrolCMW2EJZV3VqKKBI-22" edge="1">
          <mxGeometry relative="1" as="geometry" />
        </mxCell>
        <mxCell id="GOrolCMW2EJZV3VqKKBI-21" value="Imply" style="rounded=0;whiteSpace=wrap;html=1;" parent="1" vertex="1">
          <mxGeometry x="100" y="220" width="100" height="40" as="geometry" />
        </mxCell>
        <mxCell id="GOrolCMW2EJZV3VqKKBI-22" value="Nimply" style="rounded=0;whiteSpace=wrap;html=1;" parent="1" vertex="1">
          <mxGeometry x="100" y="280" width="100" height="40" as="geometry" />
        </mxCell>
        <mxCell id="e9Uf-BKv1Z9OjhWeF6SA-1" value="" style="triangle;whiteSpace=wrap;html=1;rotation=90;fillColor=#00A300;strokeColor=#005700;fontColor=#ffffff;" parent="1" vertex="1">
          <mxGeometry x="380" y="20" width="60" height="80" as="geometry" />
        </mxCell>
        <mxCell id="e9Uf-BKv1Z9OjhWeF6SA-2" value="Start" style="text;html=1;strokeColor=none;fillColor=none;align=center;verticalAlign=middle;whiteSpace=wrap;rounded=0;" parent="1" vertex="1">
          <mxGeometry x="380" y="30" width="60" height="30" as="geometry" />
        </mxCell>
        <mxCell id="yk7M2jTWE5TYmU-36hXy-3" style="edgeStyle=orthogonalEdgeStyle;rounded=0;orthogonalLoop=1;jettySize=auto;html=1;exitX=1;exitY=0.5;exitDx=0;exitDy=0;exitPerimeter=0;" edge="1" parent="1" source="yk7M2jTWE5TYmU-36hXy-1">
          <mxGeometry relative="1" as="geometry">
            <mxPoint x="260" y="469" as="targetPoint" />
          </mxGeometry>
        </mxCell>
        <mxCell id="yk7M2jTWE5TYmU-36hXy-1" value="AND&amp;nbsp;" style="shape=or;whiteSpace=wrap;html=1;" vertex="1" parent="1">
          <mxGeometry x="160" y="429" width="60" height="80" as="geometry" />
        </mxCell>
        <mxCell id="yk7M2jTWE5TYmU-36hXy-9" style="edgeStyle=orthogonalEdgeStyle;rounded=0;orthogonalLoop=1;jettySize=auto;html=1;exitX=1;exitY=0.5;exitDx=0;exitDy=0;exitPerimeter=0;" edge="1" parent="1" source="yk7M2jTWE5TYmU-36hXy-2">
          <mxGeometry relative="1" as="geometry">
            <mxPoint x="490" y="468.52941176470586" as="targetPoint" />
          </mxGeometry>
        </mxCell>
        <mxCell id="yk7M2jTWE5TYmU-36hXy-2" value="&amp;nbsp; &amp;nbsp; OR" style="shape=xor;whiteSpace=wrap;html=1;" vertex="1" parent="1">
          <mxGeometry x="390" y="429" width="60" height="80" as="geometry" />
        </mxCell>
        <mxCell id="yk7M2jTWE5TYmU-36hXy-4" value="" style="endArrow=none;html=1;rounded=0;" edge="1" parent="1">
          <mxGeometry width="50" height="50" relative="1" as="geometry">
            <mxPoint x="120" y="489" as="sourcePoint" />
            <mxPoint x="160" y="489" as="targetPoint" />
          </mxGeometry>
        </mxCell>
        <mxCell id="yk7M2jTWE5TYmU-36hXy-6" value="" style="endArrow=none;html=1;rounded=0;" edge="1" parent="1">
          <mxGeometry width="50" height="50" relative="1" as="geometry">
            <mxPoint x="120" y="449" as="sourcePoint" />
            <mxPoint x="160" y="449" as="targetPoint" />
          </mxGeometry>
        </mxCell>
        <mxCell id="yk7M2jTWE5TYmU-36hXy-7" value="" style="endArrow=none;html=1;rounded=0;" edge="1" parent="1">
          <mxGeometry width="50" height="50" relative="1" as="geometry">
            <mxPoint x="360" y="488.58" as="sourcePoint" />
            <mxPoint x="400" y="488.58" as="targetPoint" />
          </mxGeometry>
        </mxCell>
        <mxCell id="yk7M2jTWE5TYmU-36hXy-8" value="" style="endArrow=none;html=1;rounded=0;" edge="1" parent="1">
          <mxGeometry width="50" height="50" relative="1" as="geometry">
            <mxPoint x="360" y="448.58" as="sourcePoint" />
            <mxPoint x="400" y="448.58" as="targetPoint" />
          </mxGeometry>
        </mxCell>
        <mxCell id="yk7M2jTWE5TYmU-36hXy-10" style="edgeStyle=orthogonalEdgeStyle;rounded=0;orthogonalLoop=1;jettySize=auto;html=1;exitX=1;exitY=0.5;exitDx=0;exitDy=0;exitPerimeter=0;startArrow=none;" edge="1" parent="1" source="yk7M2jTWE5TYmU-36hXy-18">
          <mxGeometry relative="1" as="geometry">
            <mxPoint x="260" y="580" as="targetPoint" />
          </mxGeometry>
        </mxCell>
        <mxCell id="yk7M2jTWE5TYmU-36hXy-11" value="NAND" style="shape=or;whiteSpace=wrap;html=1;" vertex="1" parent="1">
          <mxGeometry x="160" y="540" width="60" height="80" as="geometry" />
        </mxCell>
        <mxCell id="yk7M2jTWE5TYmU-36hXy-13" value="&amp;nbsp; &amp;nbsp; NOR" style="shape=xor;whiteSpace=wrap;html=1;" vertex="1" parent="1">
          <mxGeometry x="390" y="540" width="60" height="80" as="geometry" />
        </mxCell>
        <mxCell id="yk7M2jTWE5TYmU-36hXy-14" value="" style="endArrow=none;html=1;rounded=0;" edge="1" parent="1">
          <mxGeometry width="50" height="50" relative="1" as="geometry">
            <mxPoint x="120" y="600" as="sourcePoint" />
            <mxPoint x="160" y="600" as="targetPoint" />
          </mxGeometry>
        </mxCell>
        <mxCell id="yk7M2jTWE5TYmU-36hXy-15" value="" style="endArrow=none;html=1;rounded=0;" edge="1" parent="1">
          <mxGeometry width="50" height="50" relative="1" as="geometry">
            <mxPoint x="120" y="560" as="sourcePoint" />
            <mxPoint x="160" y="560" as="targetPoint" />
          </mxGeometry>
        </mxCell>
        <mxCell id="yk7M2jTWE5TYmU-36hXy-16" value="" style="endArrow=none;html=1;rounded=0;" edge="1" parent="1">
          <mxGeometry width="50" height="50" relative="1" as="geometry">
            <mxPoint x="360" y="599.5799999999999" as="sourcePoint" />
            <mxPoint x="400" y="599.5799999999999" as="targetPoint" />
          </mxGeometry>
        </mxCell>
        <mxCell id="yk7M2jTWE5TYmU-36hXy-17" value="" style="endArrow=none;html=1;rounded=0;" edge="1" parent="1">
          <mxGeometry width="50" height="50" relative="1" as="geometry">
            <mxPoint x="360" y="559.5799999999999" as="sourcePoint" />
            <mxPoint x="400" y="559.5799999999999" as="targetPoint" />
          </mxGeometry>
        </mxCell>
        <mxCell id="yk7M2jTWE5TYmU-36hXy-18" value="" style="ellipse;whiteSpace=wrap;html=1;aspect=fixed;" vertex="1" parent="1">
          <mxGeometry x="220" y="575" width="10" height="10" as="geometry" />
        </mxCell>
        <mxCell id="yk7M2jTWE5TYmU-36hXy-20" style="edgeStyle=orthogonalEdgeStyle;rounded=0;orthogonalLoop=1;jettySize=auto;html=1;exitX=1;exitY=0.5;exitDx=0;exitDy=0;exitPerimeter=0;startArrow=none;" edge="1" parent="1" source="yk7M2jTWE5TYmU-36hXy-21">
          <mxGeometry relative="1" as="geometry">
            <mxPoint x="490" y="580" as="targetPoint" />
          </mxGeometry>
        </mxCell>
        <mxCell id="yk7M2jTWE5TYmU-36hXy-21" value="" style="ellipse;whiteSpace=wrap;html=1;aspect=fixed;" vertex="1" parent="1">
          <mxGeometry x="450" y="575" width="10" height="10" as="geometry" />
        </mxCell>
        <mxCell id="yk7M2jTWE5TYmU-36hXy-22" style="edgeStyle=orthogonalEdgeStyle;rounded=0;orthogonalLoop=1;jettySize=auto;html=1;exitX=1;exitY=0.5;exitDx=0;exitDy=0;exitPerimeter=0;" edge="1" parent="1" source="yk7M2jTWE5TYmU-36hXy-23">
          <mxGeometry relative="1" as="geometry">
            <mxPoint x="250" y="689.529411764706" as="targetPoint" />
          </mxGeometry>
        </mxCell>
        <mxCell id="yk7M2jTWE5TYmU-36hXy-24" value="" style="endArrow=none;html=1;rounded=0;" edge="1" parent="1">
          <mxGeometry width="50" height="50" relative="1" as="geometry">
            <mxPoint x="120" y="709.5799999999999" as="sourcePoint" />
            <mxPoint x="160" y="709.5799999999999" as="targetPoint" />
          </mxGeometry>
        </mxCell>
        <mxCell id="yk7M2jTWE5TYmU-36hXy-25" value="" style="endArrow=none;html=1;rounded=0;" edge="1" parent="1">
          <mxGeometry width="50" height="50" relative="1" as="geometry">
            <mxPoint x="120" y="669.5799999999999" as="sourcePoint" />
            <mxPoint x="160" y="669.5799999999999" as="targetPoint" />
          </mxGeometry>
        </mxCell>
        <mxCell id="yk7M2jTWE5TYmU-36hXy-26" value="" style="shape=xor;whiteSpace=wrap;html=1;" vertex="1" parent="1">
          <mxGeometry x="145" y="650" width="60" height="80" as="geometry" />
        </mxCell>
        <mxCell id="yk7M2jTWE5TYmU-36hXy-23" value="&amp;nbsp; &amp;nbsp;XOR" style="shape=xor;whiteSpace=wrap;html=1;" vertex="1" parent="1">
          <mxGeometry x="150" y="650" width="60" height="80" as="geometry" />
        </mxCell>
        <mxCell id="yk7M2jTWE5TYmU-36hXy-32" style="edgeStyle=orthogonalEdgeStyle;rounded=0;orthogonalLoop=1;jettySize=auto;html=1;exitX=1;exitY=0.5;exitDx=0;exitDy=0;exitPerimeter=0;startArrow=none;" edge="1" parent="1" source="yk7M2jTWE5TYmU-36hXy-37">
          <mxGeometry relative="1" as="geometry">
            <mxPoint x="250" y="799.529411764706" as="targetPoint" />
          </mxGeometry>
        </mxCell>
        <mxCell id="yk7M2jTWE5TYmU-36hXy-33" value="" style="endArrow=none;html=1;rounded=0;" edge="1" parent="1">
          <mxGeometry width="50" height="50" relative="1" as="geometry">
            <mxPoint x="120" y="819.5799999999999" as="sourcePoint" />
            <mxPoint x="160" y="819.5799999999999" as="targetPoint" />
          </mxGeometry>
        </mxCell>
        <mxCell id="yk7M2jTWE5TYmU-36hXy-34" value="" style="endArrow=none;html=1;rounded=0;" edge="1" parent="1">
          <mxGeometry width="50" height="50" relative="1" as="geometry">
            <mxPoint x="120" y="779.5799999999999" as="sourcePoint" />
            <mxPoint x="160" y="779.5799999999999" as="targetPoint" />
          </mxGeometry>
        </mxCell>
        <mxCell id="yk7M2jTWE5TYmU-36hXy-35" value="" style="shape=xor;whiteSpace=wrap;html=1;" vertex="1" parent="1">
          <mxGeometry x="145" y="760" width="60" height="80" as="geometry" />
        </mxCell>
        <mxCell id="yk7M2jTWE5TYmU-36hXy-36" value="&amp;nbsp; &amp;nbsp; XNOR" style="shape=xor;whiteSpace=wrap;html=1;" vertex="1" parent="1">
          <mxGeometry x="150" y="760" width="60" height="80" as="geometry" />
        </mxCell>
        <mxCell id="yk7M2jTWE5TYmU-36hXy-37" value="" style="ellipse;whiteSpace=wrap;html=1;aspect=fixed;" vertex="1" parent="1">
          <mxGeometry x="210" y="795" width="10" height="10" as="geometry" />
        </mxCell>
        <mxCell id="yk7M2jTWE5TYmU-36hXy-39" value="NOT&amp;nbsp; &amp;nbsp;" style="triangle;whiteSpace=wrap;html=1;" vertex="1" parent="1">
          <mxGeometry x="150" y="870" width="60" height="80" as="geometry" />
        </mxCell>
        <mxCell id="yk7M2jTWE5TYmU-36hXy-42" value="" style="endArrow=none;html=1;rounded=0;" edge="1" parent="1">
          <mxGeometry width="50" height="50" relative="1" as="geometry">
            <mxPoint x="110" y="909.6599999999999" as="sourcePoint" />
            <mxPoint x="150" y="909.6599999999999" as="targetPoint" />
          </mxGeometry>
        </mxCell>
        <mxCell id="yk7M2jTWE5TYmU-36hXy-45" style="edgeStyle=orthogonalEdgeStyle;rounded=0;orthogonalLoop=1;jettySize=auto;html=1;exitX=1;exitY=0.5;exitDx=0;exitDy=0;" edge="1" parent="1" source="yk7M2jTWE5TYmU-36hXy-43">
          <mxGeometry relative="1" as="geometry">
            <mxPoint x="250" y="910.0344827586207" as="targetPoint" />
          </mxGeometry>
        </mxCell>
        <mxCell id="yk7M2jTWE5TYmU-36hXy-43" value="" style="ellipse;whiteSpace=wrap;html=1;aspect=fixed;" vertex="1" parent="1">
          <mxGeometry x="210" y="905" width="10" height="10" as="geometry" />
        </mxCell>
        <mxCell id="yk7M2jTWE5TYmU-36hXy-51" style="edgeStyle=orthogonalEdgeStyle;rounded=0;orthogonalLoop=1;jettySize=auto;html=1;exitX=1;exitY=0.5;exitDx=0;exitDy=0;exitPerimeter=0;" edge="1" parent="1" source="yk7M2jTWE5TYmU-36hXy-52">
          <mxGeometry relative="1" as="geometry">
            <mxPoint x="500" y="800.0000000000001" as="targetPoint" />
          </mxGeometry>
        </mxCell>
        <mxCell id="yk7M2jTWE5TYmU-36hXy-52" value="NIMPLY" style="shape=or;whiteSpace=wrap;html=1;" vertex="1" parent="1">
          <mxGeometry x="400" y="760" width="60" height="80" as="geometry" />
        </mxCell>
        <mxCell id="yk7M2jTWE5TYmU-36hXy-53" value="" style="endArrow=none;html=1;rounded=0;" edge="1" parent="1">
          <mxGeometry width="50" height="50" relative="1" as="geometry">
            <mxPoint x="360" y="820.0000000000001" as="sourcePoint" />
            <mxPoint x="400" y="820.0000000000001" as="targetPoint" />
          </mxGeometry>
        </mxCell>
        <mxCell id="yk7M2jTWE5TYmU-36hXy-55" style="edgeStyle=orthogonalEdgeStyle;rounded=0;orthogonalLoop=1;jettySize=auto;html=1;exitX=1;exitY=0.5;exitDx=0;exitDy=0;exitPerimeter=0;startArrow=none;" edge="1" parent="1" source="yk7M2jTWE5TYmU-36hXy-59">
          <mxGeometry relative="1" as="geometry">
            <mxPoint x="500" y="690.0000000000001" as="targetPoint" />
          </mxGeometry>
        </mxCell>
        <mxCell id="yk7M2jTWE5TYmU-36hXy-56" value="IMPLY" style="shape=or;whiteSpace=wrap;html=1;" vertex="1" parent="1">
          <mxGeometry x="400" y="650" width="60" height="80" as="geometry" />
        </mxCell>
        <mxCell id="yk7M2jTWE5TYmU-36hXy-57" value="" style="endArrow=none;html=1;rounded=0;" edge="1" parent="1">
          <mxGeometry width="50" height="50" relative="1" as="geometry">
            <mxPoint x="360" y="710.0000000000001" as="sourcePoint" />
            <mxPoint x="400" y="710.0000000000001" as="targetPoint" />
          </mxGeometry>
        </mxCell>
        <mxCell id="yk7M2jTWE5TYmU-36hXy-58" value="" style="endArrow=none;html=1;rounded=0;entryX=0;entryY=0.5;entryDx=0;entryDy=0;" edge="1" parent="1" target="yk7M2jTWE5TYmU-36hXy-69">
          <mxGeometry width="50" height="50" relative="1" as="geometry">
            <mxPoint x="360" y="670.0000000000001" as="sourcePoint" />
            <mxPoint x="380" y="670" as="targetPoint" />
          </mxGeometry>
        </mxCell>
        <mxCell id="yk7M2jTWE5TYmU-36hXy-59" value="" style="ellipse;whiteSpace=wrap;html=1;aspect=fixed;" vertex="1" parent="1">
          <mxGeometry x="460" y="685" width="10" height="10" as="geometry" />
        </mxCell>
        <mxCell id="yk7M2jTWE5TYmU-36hXy-69" value="" style="ellipse;whiteSpace=wrap;html=1;aspect=fixed;" vertex="1" parent="1">
          <mxGeometry x="390" y="665" width="10" height="10" as="geometry" />
        </mxCell>
        <mxCell id="yk7M2jTWE5TYmU-36hXy-70" value="" style="endArrow=none;html=1;rounded=0;entryX=0;entryY=0.5;entryDx=0;entryDy=0;" edge="1" parent="1" target="yk7M2jTWE5TYmU-36hXy-71">
          <mxGeometry width="50" height="50" relative="1" as="geometry">
            <mxPoint x="360.0000000000001" y="780.0000000000001" as="sourcePoint" />
            <mxPoint x="380" y="780" as="targetPoint" />
          </mxGeometry>
        </mxCell>
        <mxCell id="yk7M2jTWE5TYmU-36hXy-71" value="" style="ellipse;whiteSpace=wrap;html=1;aspect=fixed;" vertex="1" parent="1">
          <mxGeometry x="390" y="775" width="10" height="10" as="geometry" />
        </mxCell>
      </root>
    </mxGraphModel>
  </diagram>
  <diagram id="xXaT7YOIKjK9uHqn3oWq" name="Latches">
    <mxGraphModel dx="1290" dy="581" grid="1" gridSize="10" guides="1" tooltips="1" connect="1" arrows="1" fold="1" page="1" pageScale="1" pageWidth="827" pageHeight="1169" math="0" shadow="0">
      <root>
        <mxCell id="0" />
        <mxCell id="1" parent="0" />
        <mxCell id="4gVQAKtwRbx7xnHbjYlJ-7" style="edgeStyle=orthogonalEdgeStyle;rounded=0;orthogonalLoop=1;jettySize=auto;html=1;entryX=0.5;entryY=0;entryDx=0;entryDy=0;" parent="1" source="4gVQAKtwRbx7xnHbjYlJ-1" target="4gVQAKtwRbx7xnHbjYlJ-5" edge="1">
          <mxGeometry relative="1" as="geometry" />
        </mxCell>
        <mxCell id="4gVQAKtwRbx7xnHbjYlJ-8" style="edgeStyle=orthogonalEdgeStyle;rounded=0;orthogonalLoop=1;jettySize=auto;html=1;exitX=1;exitY=0.5;exitDx=0;exitDy=0;entryX=0.5;entryY=0;entryDx=0;entryDy=0;" parent="1" source="4gVQAKtwRbx7xnHbjYlJ-1" target="4gVQAKtwRbx7xnHbjYlJ-6" edge="1">
          <mxGeometry relative="1" as="geometry" />
        </mxCell>
        <mxCell id="4gVQAKtwRbx7xnHbjYlJ-9" style="edgeStyle=orthogonalEdgeStyle;rounded=0;orthogonalLoop=1;jettySize=auto;html=1;exitX=0.5;exitY=1;exitDx=0;exitDy=0;" parent="1" source="4gVQAKtwRbx7xnHbjYlJ-1" target="4gVQAKtwRbx7xnHbjYlJ-4" edge="1">
          <mxGeometry relative="1" as="geometry" />
        </mxCell>
        <mxCell id="4gVQAKtwRbx7xnHbjYlJ-1" value="Latches&lt;br&gt;Flip flops" style="rounded=0;whiteSpace=wrap;html=1;" parent="1" vertex="1">
          <mxGeometry x="360" y="100" width="100" height="40" as="geometry" />
        </mxCell>
        <mxCell id="4gVQAKtwRbx7xnHbjYlJ-4" value="D flip flop" style="rounded=0;whiteSpace=wrap;html=1;" parent="1" vertex="1">
          <mxGeometry x="360" y="160" width="100" height="40" as="geometry" />
        </mxCell>
        <mxCell id="4gVQAKtwRbx7xnHbjYlJ-5" value="T flip flop" style="rounded=0;whiteSpace=wrap;html=1;" parent="1" vertex="1">
          <mxGeometry x="230" y="160" width="100" height="40" as="geometry" />
        </mxCell>
        <mxCell id="4gVQAKtwRbx7xnHbjYlJ-6" value="RS NOR latch" style="rounded=0;whiteSpace=wrap;html=1;" parent="1" vertex="1">
          <mxGeometry x="490" y="160" width="100" height="40" as="geometry" />
        </mxCell>
        <mxCell id="1pmX1mCSPuKhpJ6EntKk-1" value="" style="triangle;whiteSpace=wrap;html=1;rotation=90;fillColor=#00A300;strokeColor=#005700;fontColor=#ffffff;" parent="1" vertex="1">
          <mxGeometry x="380" y="20" width="60" height="80" as="geometry" />
        </mxCell>
        <mxCell id="1pmX1mCSPuKhpJ6EntKk-2" value="Start" style="text;html=1;strokeColor=none;fillColor=none;align=center;verticalAlign=middle;whiteSpace=wrap;rounded=0;" parent="1" vertex="1">
          <mxGeometry x="380" y="30" width="60" height="30" as="geometry" />
        </mxCell>
      </root>
    </mxGraphModel>
  </diagram>
</mxfile>
